<?xml version="1.0" standalone="no"?>
<!DOCTYPE svg PUBLIC "-//W3C//DTD SVG 20010904//EN"
 "http://www.w3.org/TR/2001/REC-SVG-20010904/DTD/svg10.dtd">
<svg version="1.0" xmlns="http://www.w3.org/2000/svg"
 width="1511.000000pt" height="1753.000000pt" viewBox="0 0 1511.000000 1753.000000"
 preserveAspectRatio="xMidYMid meet">

<g transform="translate(0.000000,1753.000000) scale(0.100000,-0.100000)"
fill="#000000" stroke="none">
<path d="M0 10786 c0 -5386 3 -6745 13 -6749 10 -4 10 -6 0 -6 -10 -1 -13
-411 -13 -2016 l0 -2015 7555 0 7555 0 0 8765 0 8765 -7555 0 -7555 0 0 -6744z
m8690 2594 c6 -8 54 -22 88 -26 13 -2 29 -8 36 -13 7 -6 16 -8 19 -4 4 3 7 2
7 -4 0 -6 14 -13 32 -17 17 -3 54 -17 82 -30 121 -58 202 -97 216 -106 8 -5
29 -15 45 -23 17 -8 61 -31 100 -51 38 -20 74 -36 81 -36 6 0 18 -7 25 -16 8
-9 32 -25 54 -36 67 -32 100 -51 103 -60 2 -4 8 -8 14 -8 6 0 31 -15 57 -33
25 -19 54 -37 64 -40 9 -4 17 -11 17 -17 0 -5 6 -10 14 -10 8 0 36 -18 63 -41
84 -71 93 -79 98 -79 9 0 52 -46 59 -65 4 -11 10 -40 12 -65 3 -25 9 -57 14
-72 6 -20 6 -28 -3 -28 -8 0 -8 -3 1 -12 14 -14 16 -52 3 -76 -6 -9 -17 -55
-26 -101 -18 -98 -52 -178 -77 -184 -10 -3 -20 -2 -23 3 -6 10 14 131 26 152
5 10 9 53 9 96 0 99 -29 165 -106 239 -30 29 -54 55 -54 59 0 11 -44 45 -77
60 -18 8 -33 20 -33 28 0 7 -11 18 -25 24 -14 6 -25 16 -25 22 0 5 -6 10 -13
10 -6 0 -37 20 -66 45 -30 24 -67 49 -83 56 -15 6 -28 17 -28 24 0 7 -8 16
-17 19 -28 10 -56 29 -88 59 -17 15 -35 27 -42 27 -6 0 -24 10 -40 23 -15 13
-44 31 -63 40 -19 10 -42 22 -50 27 -8 5 -28 15 -45 23 -16 8 -57 29 -90 47
-64 35 -95 51 -160 80 -78 35 -160 74 -164 76 -2 2 -1 10 3 19 4 12 12 14 28
9 13 -4 25 -10 28 -14z m-1527 -117 c-13 -2 -33 -2 -45 0 -13 2 -3 4 22 4 25
0 35 -2 23 -4z m731 -4 c94 -7 173 -15 176 -18 3 -4 56 -13 119 -19 63 -7 129
-19 145 -26 17 -8 64 -19 103 -26 40 -6 75 -16 79 -21 3 -5 14 -9 25 -9 11 0
44 -7 72 -15 29 -9 77 -23 107 -32 30 -9 59 -20 65 -25 5 -4 17 -8 27 -8 10 0
18 -5 18 -11 0 -5 4 -8 9 -5 9 6 64 -9 94 -25 10 -5 22 -7 27 -4 6 4 13 -1 16
-9 3 -9 12 -16 19 -16 8 0 26 -11 42 -23 15 -13 46 -27 68 -30 22 -4 45 -13
51 -22 6 -8 16 -15 21 -15 6 0 30 -13 54 -30 24 -16 51 -30 60 -30 8 0 26 -11
39 -25 13 -14 31 -25 39 -26 9 0 36 -16 61 -35 25 -19 56 -40 70 -46 29 -14
102 -73 173 -140 50 -46 50 -46 49 -108 0 -34 -5 -67 -10 -73 -5 -7 -17 -82
-27 -167 -9 -85 -20 -159 -25 -165 -4 -5 -10 -43 -12 -82 l-5 -73 51 0 c103 0
182 -20 284 -72 30 -16 59 -28 66 -28 6 0 27 -13 46 -30 19 -16 41 -29 48 -30
6 0 12 -4 12 -10 0 -5 5 -10 11 -10 6 0 33 -16 59 -35 26 -19 51 -35 55 -35
10 0 125 -119 125 -130 0 -5 8 -11 18 -14 9 -3 22 -14 27 -25 20 -38 80 -121
87 -121 5 0 8 -7 8 -15 0 -9 18 -40 40 -69 22 -29 40 -60 40 -69 0 -9 9 -24
19 -34 10 -10 24 -36 30 -59 9 -33 29 -56 115 -132 57 -51 109 -92 115 -92 6
0 16 -11 21 -25 5 -14 16 -25 24 -25 7 0 16 -9 19 -21 3 -11 14 -23 25 -26 11
-2 25 -16 31 -29 6 -13 17 -24 26 -24 8 0 15 -6 15 -12 0 -7 13 -26 28 -43 41
-44 102 -126 102 -137 0 -6 10 -24 23 -41 24 -35 47 -92 47 -120 0 -10 6 -28
14 -40 8 -12 20 -49 26 -82 7 -33 16 -65 21 -71 10 -12 15 -65 25 -234 4 -69
11 -130 15 -136 5 -6 10 -188 12 -404 2 -362 1 -394 -15 -404 -27 -17 -38 3
-40 77 -1 38 -5 70 -9 73 -4 2 -8 156 -9 342 0 314 -2 371 -15 462 -3 19 -8
80 -11 135 -3 55 -9 105 -13 110 -4 6 -13 30 -20 55 -7 25 -19 59 -26 75 -8
17 -17 44 -20 61 -3 18 -15 40 -25 49 -11 10 -23 34 -26 54 -4 20 -15 44 -25
54 -11 10 -19 22 -19 27 0 6 -7 10 -16 10 -9 0 -18 8 -21 18 -2 10 -14 22 -26
27 -12 6 -28 22 -35 38 -7 15 -20 27 -28 27 -7 0 -14 7 -14 16 0 8 -13 20 -29
25 -16 6 -31 19 -34 30 -3 10 -12 19 -20 19 -8 0 -17 9 -20 20 -3 11 -12 20
-21 20 -9 0 -16 8 -16 20 0 13 -7 20 -20 20 -12 0 -31 11 -43 23 -12 13 -34
32 -49 42 -16 9 -28 22 -28 28 0 6 -13 22 -29 36 -16 14 -31 40 -35 56 -4 17
-20 46 -37 65 -17 19 -37 49 -44 66 -8 17 -21 36 -29 44 -9 7 -16 22 -16 35 0
12 -26 53 -60 93 -33 40 -60 77 -60 84 -1 20 -62 84 -87 92 -13 4 -23 12 -23
17 0 5 -7 9 -15 9 -8 0 -15 9 -15 20 0 13 -7 20 -20 20 -11 0 -20 6 -20 13 0
8 -10 19 -22 26 -13 6 -36 20 -53 30 -16 11 -36 20 -43 20 -7 1 -28 12 -46 26
-18 14 -39 25 -46 25 -7 0 -28 11 -46 25 -18 14 -40 25 -49 25 -8 0 -26 6 -38
14 -13 9 -51 15 -97 16 -129 2 -117 9 -122 -70 -3 -38 -11 -77 -18 -85 -10
-12 -10 -15 1 -15 11 0 11 -2 1 -8 -14 -9 -22 -89 -29 -292 -3 -74 -9 -140
-14 -147 -7 -7 -6 -14 1 -18 13 -8 13 -72 -1 -81 -7 -4 -8 -9 0 -17 6 -6 7
-16 1 -28 -11 -19 -17 -225 -8 -234 3 -3 3 -26 0 -50 -2 -25 0 -50 5 -57 6 -7
11 -62 12 -123 1 -60 4 -123 5 -140 2 -16 6 -64 10 -105 4 -41 11 -84 16 -95
8 -19 25 -123 36 -224 2 -25 8 -49 13 -55 4 -6 14 -45 21 -86 7 -41 20 -93 30
-115 10 -22 21 -56 25 -75 4 -19 11 -39 15 -45 5 -5 8 -12 8 -15 0 -10 36 -96
51 -120 5 -8 17 -33 27 -54 39 -82 57 -112 90 -153 19 -23 34 -46 34 -52 0 -6
9 -16 20 -23 11 -7 20 -17 20 -21 0 -5 16 -25 35 -45 19 -20 35 -40 35 -44 0
-11 -28 -10 -53 3 -29 14 -117 110 -117 126 0 7 -5 13 -10 13 -6 0 -15 12 -21
26 -5 15 -23 44 -39 64 -17 21 -30 43 -30 49 0 6 -16 34 -35 61 -19 27 -35 55
-35 61 0 6 -8 28 -19 48 -29 56 -45 94 -47 113 0 10 -6 23 -11 30 -6 7 -18 40
-28 73 -9 33 -23 71 -30 85 -7 14 -16 46 -20 73 -4 26 -11 50 -16 53 -5 3 -9
20 -9 38 0 18 -3 36 -7 40 -4 3 -7 14 -8 24 -6 63 -18 139 -25 147 -28 37 -47
725 -27 1010 3 50 9 135 13 190 4 55 10 105 14 110 4 6 10 37 13 70 15 165 30
271 38 280 5 5 9 25 9 44 0 48 20 198 31 241 6 19 14 82 18 140 l8 105 -51 52
c-28 29 -56 52 -63 53 -7 0 -27 15 -45 33 -18 17 -45 38 -59 45 -15 8 -38 25
-52 38 -14 13 -35 24 -46 24 -11 0 -25 9 -30 19 -6 10 -23 24 -38 30 -16 6
-46 22 -68 35 -78 47 -98 56 -125 56 -19 0 -29 6 -33 20 -4 17 -29 26 -59 21
-5 0 -8 3 -8 9 0 5 -17 18 -37 28 -21 10 -47 23 -58 29 -11 6 -40 16 -65 23
-25 6 -63 20 -85 30 -22 10 -51 23 -65 29 -14 6 -32 15 -40 20 -8 5 -34 15
-57 22 -24 7 -43 16 -43 21 0 4 -20 8 -43 8 -24 0 -47 3 -51 7 -3 4 -14 8 -24
9 -80 12 -108 18 -118 25 -9 8 -158 39 -194 41 -8 0 -20 5 -26 9 -6 5 -38 11
-70 14 -142 11 -200 18 -209 25 -11 9 -132 18 -400 29 l-170 8 264 1 c145 1
341 -3 435 -9z m671 -689 c19 -1 46 -14 69 -34 32 -26 39 -38 40 -71 l1 -40
-94 2 c-52 2 -99 7 -106 13 -6 5 -15 7 -19 3 -10 -10 -46 -11 -46 -1 0 11
-263 10 -275 -1 -6 -4 -80 -14 -165 -21 -85 -7 -159 -16 -165 -20 -5 -4 -57
-15 -115 -25 -58 -9 -109 -21 -115 -25 -5 -3 -37 -13 -70 -20 -33 -7 -69 -18
-80 -25 -11 -6 -49 -17 -85 -24 -36 -7 -84 -21 -107 -32 -23 -10 -45 -19 -48
-19 -4 0 -22 -7 -41 -15 -19 -8 -51 -22 -71 -30 -21 -9 -45 -19 -53 -24 -37
-19 -85 -46 -90 -51 -3 -3 -21 -13 -40 -22 -19 -10 -60 -32 -90 -49 -30 -17
-67 -38 -82 -46 -16 -8 -28 -18 -28 -22 0 -4 -26 -16 -57 -27 -32 -10 -69 -29
-82 -41 -13 -13 -39 -32 -56 -43 -18 -11 -36 -27 -39 -35 -8 -21 -56 -39 -69
-26 -7 7 -15 7 -22 1 -6 -5 -28 -7 -48 -3 -45 7 -53 28 -37 97 11 51 59 147
91 182 11 11 19 26 19 32 0 7 5 12 10 12 6 0 10 6 10 13 0 8 11 24 25 37 14
13 25 28 25 33 0 5 7 15 16 22 9 6 15 17 13 23 -8 22 -329 -306 -329 -337 0
-6 -5 -11 -10 -11 -6 0 -13 -8 -17 -17 -3 -10 -21 -39 -40 -66 -18 -26 -33
-52 -33 -57 0 -6 -4 -10 -8 -10 -4 0 -16 -22 -26 -50 -10 -27 -22 -50 -26 -50
-5 0 -14 -17 -21 -37 -7 -21 -17 -42 -24 -48 -6 -5 -18 -30 -25 -55 -8 -25
-17 -50 -21 -55 -11 -16 -39 -98 -39 -117 0 -10 -4 -18 -10 -18 -5 0 -10 -10
-10 -23 0 -13 -4 -27 -9 -32 -6 -6 -12 -29 -15 -52 -2 -22 -9 -49 -14 -60 -6
-10 -16 -37 -22 -60 -7 -23 -18 -44 -25 -47 -6 -2 -18 -39 -25 -83 -7 -43 -16
-82 -20 -88 -8 -10 -17 -94 -26 -239 -3 -57 -10 -85 -24 -103 -10 -13 -22 -24
-27 -24 -4 0 -18 -10 -30 -21 -26 -24 -45 -19 -68 16 -33 50 -31 711 2 796 7
17 6 14 16 95 4 33 9 75 12 93 6 47 -10 31 -24 -25 -7 -27 -17 -56 -22 -65 -4
-9 -16 -50 -25 -90 -9 -40 -20 -75 -23 -78 -9 -6 -31 -118 -31 -153 0 -15 -5
-27 -11 -27 -6 0 -9 -6 -6 -14 3 -7 2 -17 -3 -22 -5 -5 -11 -59 -14 -121 -7
-132 -15 -156 -55 -174 -21 -9 -31 -21 -32 -36 0 -13 -2 -42 -2 -65 -2 -37 -6
-45 -31 -57 -26 -12 -31 -12 -42 4 -7 9 -16 36 -19 58 -4 23 -12 48 -19 56
-15 19 -11 278 5 297 9 11 9 14 -1 14 -9 0 -9 4 -2 13 8 10 21 111 28 217 4
81 17 176 25 185 4 6 13 48 19 95 6 47 15 87 19 90 5 3 16 43 25 90 9 47 21
89 26 94 6 6 10 19 10 31 0 11 7 48 16 80 9 33 17 67 18 75 0 8 4 17 7 20 3 3
9 19 13 35 l7 30 -34 -34 c-20 -18 -38 -44 -41 -57 -4 -13 -12 -24 -19 -25
-12 0 -77 -91 -77 -108 0 -5 -7 -11 -15 -14 -8 -4 -21 -21 -30 -39 -9 -18 -30
-58 -47 -88 -17 -30 -39 -75 -48 -100 -9 -25 -23 -60 -30 -77 -17 -45 -40 -42
-85 12 l-36 45 25 54 c14 30 31 58 36 61 6 3 10 13 10 20 0 13 82 129 125 178
8 9 15 21 15 26 0 5 14 23 30 41 17 18 30 34 30 37 0 2 6 10 13 17 51 53 87
97 87 106 0 5 6 10 13 10 6 1 54 41 106 90 52 49 109 96 127 105 19 9 34 20
34 25 0 8 71 50 85 50 3 0 5 -12 5 -26 0 -23 -26 -83 -77 -174 -7 -14 -21 -42
-29 -62 -9 -21 -20 -38 -24 -38 -4 0 -11 -17 -15 -37 -3 -21 -14 -51 -24 -68
-9 -16 -25 -57 -35 -90 -10 -33 -22 -64 -26 -70 -5 -5 -13 -39 -20 -75 -7 -36
-18 -83 -25 -105 -8 -22 -19 -74 -26 -115 -7 -41 -15 -79 -19 -85 -4 -5 -11
-48 -14 -95 -4 -47 -9 -107 -11 -135 l-4 -50 15 55 c9 30 20 63 25 73 5 10 7
22 4 27 -4 6 -2 10 3 10 4 0 14 29 21 65 7 36 17 65 22 65 5 0 8 3 7 8 -2 10
27 77 59 137 9 17 22 43 30 59 37 77 89 172 98 178 6 4 7 8 2 8 -4 0 8 21 26
48 18 26 36 54 39 64 12 30 80 118 91 118 20 0 38 -16 53 -45 18 -35 18 -49
-1 -65 -8 -7 -15 -23 -15 -35 0 -13 -7 -26 -16 -29 -9 -4 -14 -9 -11 -13 4 -3
0 -15 -8 -27 -8 -11 -15 -30 -15 -41 0 -12 -6 -27 -12 -34 -7 -6 -13 -15 -14
-19 0 -4 -6 -20 -12 -35 -7 -16 -12 -34 -12 -40 0 -7 -7 -25 -15 -41 -22 -42
-32 -96 -40 -216 -4 -58 -10 -107 -14 -110 -10 -7 -8 -50 2 -50 6 0 6 -5 0
-12 -5 -7 -10 -47 -10 -88 -1 -50 1 -68 7 -55 5 11 9 32 9 47 1 15 5 29 10 32
5 3 17 38 26 78 10 40 21 78 25 83 4 6 10 24 14 40 6 25 138 307 167 355 5 8
15 26 21 40 32 65 149 239 195 290 13 14 23 29 22 34 0 5 3 12 8 15 5 3 35 38
66 77 31 40 91 102 134 138 98 83 101 86 108 86 3 0 27 16 52 35 25 19 52 35
59 35 7 0 17 6 21 14 9 16 100 49 113 41 5 -3 11 -1 15 5 3 5 32 10 64 10 76
0 99 -21 81 -74 -6 -19 -20 -38 -30 -41 -10 -3 -22 -15 -25 -26 -4 -10 -11
-19 -17 -19 -11 0 -157 -142 -172 -169 -6 -10 -41 -54 -78 -96 -38 -43 -68
-84 -68 -92 0 -7 -4 -13 -10 -13 -9 0 -44 -70 -37 -76 1 -2 29 19 61 47 32 27
61 49 66 49 4 0 31 16 59 35 28 19 55 35 61 35 6 0 26 11 44 25 18 14 40 25
49 25 8 0 17 4 19 8 4 10 126 69 161 78 15 3 27 9 27 13 0 4 21 13 48 20 26 7
56 19 67 25 11 7 40 18 65 26 25 7 50 16 55 19 6 3 18 4 28 3 9 -2 17 1 17 6
0 5 14 12 31 16 17 3 45 12 62 20 29 13 53 19 112 30 77 14 101 20 112 28 6 5
23 6 37 2 15 -3 26 -2 26 4 0 10 46 20 135 29 28 3 52 8 55 13 5 7 81 17 194
26 33 3 66 10 73 16 7 6 24 8 38 6 14 -3 28 -1 31 4 5 8 182 7 389 -2z m-3905
-100 c0 -6 -6 -21 -14 -33 -8 -12 -19 -47 -26 -77 -6 -30 -15 -64 -19 -75 -13
-30 -41 -186 -41 -222 0 -17 -4 -33 -9 -35 -18 -6 -21 -61 -22 -373 -2 -268
-4 -300 -13 -235 -6 41 -14 80 -17 85 -9 16 -8 298 1 315 5 9 5 22 0 29 -4 8
-4 28 1 45 4 17 13 87 19 155 6 68 15 130 20 136 6 7 12 34 15 61 10 84 27
164 36 164 5 0 9 5 9 12 0 14 40 58 52 58 4 0 8 -5 8 -10z m5519 -24 c15 -18
21 -48 22 -117 1 -45 -5 -67 -26 -103 -29 -50 -50 -52 -41 -2 3 17 6 74 7 126
1 52 4 98 6 103 6 11 19 8 32 -7z m-2669 -227 c0 -45 -23 -165 -35 -185 -7
-11 -21 -49 -30 -85 -9 -35 -21 -73 -25 -84 -5 -11 -14 -40 -21 -65 -6 -25
-14 -52 -17 -60 -3 -8 -6 -22 -7 -30 -1 -8 -4 -22 -8 -30 -3 -8 -11 -49 -17
-90 -7 -41 -16 -79 -19 -85 -8 -11 -26 -128 -37 -233 -3 -34 -10 -65 -15 -68
-13 -7 -11 -181 1 -189 6 -4 22 -25 36 -47 24 -38 25 -41 8 -59 -9 -10 -22
-19 -29 -19 -26 0 -65 27 -70 50 -4 14 -12 31 -18 39 -12 14 -13 17 -15 101
l-2 55 -20 -33 c-11 -18 -20 -37 -20 -42 0 -6 -8 -19 -17 -29 -10 -11 -34 -40
-53 -66 -19 -26 -50 -53 -67 -61 -18 -8 -33 -19 -33 -24 0 -17 -89 -11 -129
10 -55 28 -84 80 -85 157 -1 33 -4 59 -8 56 -5 -2 -8 -12 -8 -21 0 -9 -7 -26
-15 -36 -8 -11 -15 -28 -15 -38 0 -10 -4 -18 -8 -18 -5 0 -15 -18 -22 -39 -7
-22 -19 -42 -26 -45 -8 -3 -14 -12 -14 -20 0 -7 -20 -36 -45 -62 -25 -27 -45
-51 -45 -54 0 -3 -16 -14 -35 -24 -19 -11 -35 -23 -35 -28 0 -12 -48 -10 -87
4 -21 8 -33 19 -33 31 0 10 -9 30 -20 44 -11 14 -20 33 -20 42 0 9 -7 27 -17
40 -9 14 -17 45 -17 72 -1 27 -3 49 -6 49 -3 0 -14 -22 -25 -50 -11 -27 -23
-50 -27 -50 -4 0 -8 -6 -8 -13 0 -7 -11 -28 -23 -47 -13 -19 -27 -47 -30 -61
-4 -14 -18 -38 -32 -53 -14 -15 -25 -33 -25 -41 0 -7 -13 -16 -29 -20 -16 -3
-37 -15 -47 -26 -13 -15 -30 -19 -79 -19 -56 0 -64 3 -88 30 -15 16 -27 36
-27 43 0 8 -3 17 -7 21 -19 19 -18 183 2 229 4 10 5 30 2 46 -3 15 -2 32 3 37
4 5 10 23 13 40 3 17 10 39 16 50 5 10 17 41 26 67 8 27 27 63 40 81 14 18 25
38 25 44 0 7 4 12 8 12 4 0 13 12 20 28 30 67 140 226 169 245 7 4 13 13 13
19 0 6 17 28 38 49 31 33 43 39 79 39 76 0 123 -63 123 -166 0 -22 5 -45 12
-52 9 -9 9 -12 0 -12 -7 0 -12 -8 -12 -17 0 -15 4 -13 20 7 10 14 25 36 32 50
19 35 68 78 106 92 17 7 32 15 32 19 0 12 114 21 141 10 60 -22 102 -157 81
-264 -5 -27 -6 -50 -1 -53 5 -3 9 2 9 10 0 9 16 47 35 85 19 37 35 73 35 80 0
6 4 11 9 11 5 0 15 15 21 34 6 19 18 40 26 47 8 7 21 26 28 43 16 38 91 116
111 116 8 0 15 6 15 13 0 19 96 67 109 54 7 -7 15 -6 25 2 8 7 24 10 35 6 17
-5 22 2 36 52 9 32 23 72 31 90 8 17 14 33 14 36 0 3 5 18 12 34 6 15 12 30
13 33 1 3 9 22 18 44 9 21 17 42 17 47 0 5 11 27 25 49 27 43 55 53 55 19z
m949 -68 c15 -15 18 -29 14 -67 -2 -27 -8 -60 -13 -74 -5 -14 -12 -41 -15 -60
-4 -19 -13 -45 -21 -57 -8 -13 -12 -23 -8 -23 4 0 2 -6 -3 -12 -6 -7 -16 -44
-23 -83 -7 -38 -16 -75 -21 -80 -10 -14 -27 -121 -35 -224 l-6 -82 38 18 c40
19 154 124 154 143 0 5 6 10 13 10 8 0 19 11 25 24 6 13 27 45 46 71 20 26 41
67 47 91 6 24 15 44 19 44 10 0 42 180 38 215 -2 23 -9 31 -34 37 -32 8 -67
38 -45 38 6 0 11 6 11 13 0 24 46 58 79 59 32 1 67 -26 90 -69 14 -27 14 -145
0 -198 -11 -43 -31 -94 -54 -138 -8 -16 -15 -35 -15 -42 0 -18 -32 -89 -42
-93 -4 -2 -15 -19 -24 -38 -22 -45 -192 -224 -250 -262 -46 -31 -110 -48 -141
-38 -34 11 -59 67 -61 136 -2 71 15 219 27 235 4 5 14 50 21 100 7 49 16 97
21 105 11 21 30 132 24 138 -3 3 -5 0 -5 -7 0 -7 -20 -38 -44 -69 -24 -32 -54
-75 -65 -97 -12 -22 -29 -53 -38 -70 -9 -16 -20 -37 -25 -45 -5 -8 -12 -24
-15 -35 -4 -11 -19 -44 -34 -73 -16 -29 -31 -68 -35 -87 -3 -19 -10 -35 -14
-35 -4 0 -16 -34 -25 -75 -10 -41 -21 -75 -25 -75 -3 0 -14 -43 -25 -95 -10
-52 -22 -95 -26 -95 -4 0 -10 -11 -13 -25 -6 -25 -20 -30 -50 -19 -18 7 -23
69 -6 79 6 3 10 43 9 88 0 70 -2 78 -12 57 -6 -14 -15 -28 -20 -31 -8 -6 -24
-34 -66 -114 -12 -22 -39 -60 -61 -85 -22 -24 -40 -49 -40 -55 0 -7 -23 -26
-51 -45 -45 -29 -56 -32 -101 -28 -33 4 -54 11 -60 22 -5 9 -15 16 -23 16 -8
0 -19 18 -25 43 -6 23 -14 49 -17 57 -4 8 -7 24 -8 35 0 11 -4 26 -8 33 -5 6
-4 12 1 12 6 0 8 27 6 63 -2 34 0 71 5 82 5 11 14 52 21 90 7 39 16 75 20 80
4 6 15 37 24 70 19 66 22 73 34 95 9 15 24 44 42 80 58 116 92 168 143 219 72
72 166 103 197 65 14 -15 21 -224 9 -224 -4 0 -9 -16 -12 -34 -3 -19 -12 -50
-20 -68 -8 -18 -23 -54 -33 -80 -11 -27 -22 -48 -26 -48 -4 0 -15 -16 -24 -36
-22 -47 -147 -154 -179 -154 -13 0 -27 -5 -30 -10 -4 -6 -10 -8 -14 -5 -5 2
-17 -2 -27 -10 -17 -12 -19 -27 -19 -144 0 -108 3 -133 17 -147 19 -19 34 -11
86 52 9 11 25 23 35 27 9 4 20 15 24 24 4 10 9 20 13 23 14 12 108 138 127
170 11 20 28 63 38 95 10 33 22 62 25 65 3 3 12 21 19 40 15 39 41 98 77 175
13 28 26 62 30 78 3 15 9 27 13 27 5 0 13 24 20 54 13 58 29 80 54 70 8 -3 18
-1 22 5 11 19 47 12 52 -10 5 -18 7 -17 21 12 9 18 55 72 102 121 78 79 89 88
123 88 23 0 44 -7 56 -19z m-4399 -166 c0 -9 9 -15 25 -15 23 0 24 -4 27 -62
6 -116 -11 -261 -31 -282 -24 -24 -35 -16 -57 40 -15 40 -16 52 -5 94 7 27 9
55 5 62 -12 18 -13 67 -3 74 5 3 9 27 9 55 0 37 4 49 15 49 8 0 15 -7 15 -15z
m-215 -711 c29 -29 52 -97 64 -184 12 -92 6 -153 -15 -171 -20 -16 -54 16 -54
51 0 14 -4 30 -9 36 -14 13 -26 284 -13 284 6 0 18 -7 27 -16z m323 -57 c6 -7
13 -35 16 -62 8 -62 26 -154 36 -180 9 -24 26 -103 35 -162 4 -24 10 -45 15
-48 4 -3 14 -29 20 -57 7 -29 17 -58 22 -65 5 -7 11 -22 13 -35 9 -54 18 -84
30 -98 7 -8 16 -26 20 -40 4 -14 19 -50 32 -80 13 -30 29 -66 35 -80 6 -14 19
-42 30 -63 11 -21 17 -41 14 -44 -3 -3 2 -18 11 -33 15 -26 15 -29 -3 -49
l-20 -20 -27 25 c-15 14 -27 29 -27 35 0 6 -11 25 -25 43 -14 18 -25 40 -25
48 0 9 -7 18 -15 22 -8 3 -15 13 -15 23 0 10 -9 29 -20 43 -11 14 -20 30 -20
37 0 7 -7 29 -16 50 -30 67 -54 142 -54 164 0 8 -8 30 -18 49 -10 19 -25 64
-32 100 -7 36 -17 70 -21 75 -4 6 -10 26 -13 45 -12 76 -19 105 -27 116 -14
18 -26 196 -15 227 11 29 45 37 64 14z m-1908 -15 c0 -10 8 -29 17 -42 13 -18
18 -46 18 -105 0 -75 -1 -80 -22 -83 -13 -2 -23 2 -23 8 0 8 -8 10 -22 7 -12
-3 -30 -2 -40 4 -18 10 -25 53 -9 63 4 3 11 30 14 60 6 56 31 105 55 106 6 0
12 -8 12 -18z m6385 2 c51 -20 127 -115 104 -130 -5 -3 -8 -28 -6 -55 4 -47
-27 -198 -42 -209 -4 -3 -13 -19 -20 -37 -15 -37 -142 -163 -165 -163 -9 0
-16 -4 -16 -9 0 -12 -56 -29 -97 -29 -21 -1 -44 10 -72 35 -40 34 -43 35 -61
18 -11 -10 -20 -22 -20 -28 0 -12 -77 -87 -90 -87 -6 0 -10 -7 -10 -15 0 -8
-6 -15 -14 -15 -7 0 -19 -6 -25 -14 -23 -27 -79 -29 -119 -4 -88 53 -105 93
-104 245 0 81 9 126 38 190 8 17 14 35 14 41 0 5 7 15 15 22 8 7 15 20 15 30
0 10 12 23 28 29 15 5 39 18 54 28 26 16 28 16 47 -2 26 -22 27 -63 4 -72 -29
-10 -53 -35 -53 -54 0 -9 -6 -20 -12 -22 -10 -4 -9 -8 2 -16 13 -10 13 -13 -2
-21 -20 -12 -30 -69 -30 -172 0 -79 13 -128 36 -128 25 0 46 12 46 26 0 8 6
14 13 14 17 0 95 77 112 111 8 14 21 29 29 32 9 4 19 33 27 82 6 41 16 78 20
81 5 3 9 14 9 24 0 26 30 89 58 118 12 14 22 29 22 33 0 5 7 9 15 9 8 0 15 4
15 10 0 15 61 80 75 80 7 0 15 6 18 14 9 23 94 29 142 10z m-4085 -123 c0 -9
-6 -4 -15 13 -8 15 -15 36 -15 45 0 9 6 4 15 -13 8 -15 15 -36 15 -45z m6494
-34 c28 -23 64 -49 79 -57 16 -8 75 -58 131 -112 105 -99 126 -132 204 -308 8
-19 19 -43 24 -53 5 -10 6 -22 2 -28 -3 -5 1 -20 9 -32 8 -12 18 -42 22 -66 4
-24 13 -58 20 -75 7 -17 16 -47 19 -66 3 -19 10 -57 15 -85 6 -27 12 -66 14
-85 2 -20 7 -41 11 -48 10 -17 8 -214 -3 -221 -5 -3 -12 -26 -16 -51 -14 -89
-85 -141 -127 -92 -37 41 -40 63 -45 325 -3 144 -8 267 -13 272 -7 9 -12 38
-26 145 -2 14 -7 57 -10 95 -4 39 -10 75 -15 81 -5 6 -13 35 -20 65 -13 67
-43 132 -83 184 -58 76 -210 215 -235 215 -6 0 -11 2 -11 4 0 2 -3 11 -6 20
-10 26 6 19 60 -27z m-6477 -104 c-3 -10 -5 -4 -5 12 0 17 2 24 5 18 2 -7 2
-21 0 -30z m3032 -229 c16 -20 21 -41 21 -86 0 -51 -4 -62 -26 -83 -15 -14
-32 -25 -38 -25 -28 0 -56 14 -56 26 0 8 -7 17 -15 20 -18 7 -22 109 -4 119 5
4 14 18 19 31 14 35 71 34 99 -2z m4379 -199 c6 -5 32 -174 32 -212 0 -48 -17
-56 -49 -25 -15 14 -20 39 -26 136 l-8 118 24 -7 c13 -4 25 -9 27 -10z m-9317
-95 c14 0 19 -12 24 -55 4 -30 11 -58 16 -61 16 -10 10 -74 -7 -81 -21 -8 -31
10 -39 73 -4 35 -13 58 -24 66 -14 10 -17 22 -13 46 3 24 8 30 15 23 6 -6 19
-11 28 -11z m9055 -67 c3 -10 10 -27 14 -38 12 -29 40 -213 40 -262 0 -23 5
-45 10 -48 13 -8 13 -78 1 -91 -5 -5 -11 -42 -12 -82 -3 -83 -29 -222 -45
-243 -7 -8 -15 -24 -18 -36 -14 -43 -73 -14 -63 30 3 12 10 40 16 62 6 22 11
59 11 82 0 23 5 43 11 45 13 4 15 473 2 491 -5 7 -10 27 -12 45 -4 49 32 85
45 45z m754 -288 c0 -8 4 -15 9 -15 17 0 -2 -42 -35 -77 -28 -30 -36 -34 -49
-23 -23 19 -18 52 16 93 31 38 59 48 59 22z m-9799 -217 c20 -25 26 -83 9 -93
-6 -4 -24 7 -40 24 -42 41 -40 86 3 90 5 1 17 -9 28 -21z m1366 -124 c-3 -3
-48 -9 -100 -14 -51 -4 -102 -13 -113 -18 -10 -6 -47 -15 -81 -21 -35 -5 -77
-17 -95 -25 -40 -18 -78 -30 -98 -30 -8 -1 -21 -14 -29 -30 -12 -25 -11 -40 3
-115 10 -47 21 -88 25 -91 5 -3 14 -32 22 -65 7 -33 18 -63 23 -67 6 -4 7 -8
2 -8 -5 0 -4 -6 1 -12 6 -7 16 -31 22 -53 7 -22 18 -53 26 -70 7 -16 17 -41
23 -55 6 -14 26 -59 45 -100 19 -41 40 -91 48 -110 7 -19 19 -44 26 -55 15
-23 17 -61 3 -70 -13 -8 -50 13 -50 29 0 8 -7 16 -14 19 -8 3 -18 23 -22 44
-3 21 -17 55 -30 75 -13 21 -24 42 -24 48 0 6 -17 47 -39 93 -21 45 -44 102
-51 127 -6 25 -16 53 -21 62 -5 9 -16 50 -24 90 -9 40 -20 82 -26 93 -20 44
-38 120 -29 123 6 2 10 17 10 33 0 19 12 42 35 68 28 31 43 39 82 44 27 3 62
11 78 18 64 28 395 66 372 43z m3249 -76 c8 -13 -30 -48 -52 -48 -17 0 -18 32
-2 48 15 15 45 15 54 0z m-1688 -55 c-2 -28 -8 -39 -22 -41 -14 -3 -17 0 -13
11 3 9 2 17 -2 19 -14 5 7 48 24 48 13 0 15 -9 13 -37z m1897 16 c-4 -5 -16
-8 -28 -8 -17 1 -18 2 -4 6 9 2 17 9 17 14 0 6 5 7 10 4 6 -4 8 -11 5 -16z
m-5064 -38 c24 -21 51 -52 59 -67 8 -16 28 -46 44 -67 40 -50 49 -139 17 -156
-31 -17 -105 4 -121 35 -8 13 -19 24 -27 24 -7 0 -13 6 -13 14 0 7 -10 28 -23
47 -29 43 -58 134 -50 157 7 20 43 51 59 52 6 0 31 -17 55 -39z m2837 7 c18
-18 15 -24 -18 -26 -41 -3 -41 31 1 37 3 1 10 -4 17 -11z m2546 -39 c14 -17
26 -37 26 -45 0 -8 5 -14 10 -14 6 0 10 -7 10 -15 0 -9 7 -18 15 -21 8 -4 15
-14 15 -24 0 -11 5 -22 10 -25 6 -3 10 -13 10 -22 0 -8 14 -31 30 -50 17 -18
30 -43 30 -53 0 -11 7 -20 15 -20 9 0 15 -6 14 -12 -4 -25 14 -73 41 -111 30
-42 30 -77 -1 -77 -11 0 -19 6 -19 13 0 7 -8 18 -17 25 -10 7 -22 16 -28 20
-19 13 -75 100 -75 116 0 9 -4 16 -10 16 -5 0 -10 9 -10 20 0 11 -4 20 -9 20
-5 0 -12 14 -16 30 -4 17 -13 30 -21 30 -8 0 -14 5 -14 11 0 16 -31 79 -39 79
-3 0 -14 -18 -23 -40 -10 -21 -29 -47 -43 -56 -14 -9 -25 -21 -25 -28 -1 -14
-67 -86 -80 -86 -5 0 -13 -6 -17 -13 -9 -15 -53 -30 -53 -17 0 4 20 29 45 56
25 26 45 56 45 66 0 11 11 23 25 28 14 5 25 17 25 25 0 9 11 31 25 49 14 18
25 38 25 44 0 7 7 12 15 12 11 0 15 11 15 43 0 67 14 73 54 26z m-2651 -27
c-3 -12 -9 -22 -14 -22 -14 0 -11 38 4 43 16 6 17 5 10 -21z m1917 -38 c0 -28
-4 -35 -16 -32 -27 5 -40 34 -25 52 23 28 41 19 41 -20z m-2166 -19 c9 -13 16
-35 16 -47 0 -13 8 -36 17 -53 42 -76 70 -125 96 -163 15 -23 27 -48 27 -55 0
-7 11 -24 25 -37 36 -34 31 -49 -17 -57 -24 -4 -46 -6 -50 -5 -11 3 -10 -6 5
-47 6 -20 18 -41 25 -46 11 -9 7 -18 -18 -45 l-31 -35 -17 25 c-9 14 -27 35
-39 48 -13 13 -23 28 -23 35 0 7 -6 22 -14 33 -21 30 -30 89 -17 113 11 19 14
20 34 7 12 -7 37 -16 55 -20 l32 -6 -16 25 c-9 14 -20 25 -25 25 -5 0 -9 9 -9
20 0 11 -4 20 -10 20 -5 0 -10 5 -10 11 0 6 -9 24 -21 40 -11 16 -18 33 -14
38 3 5 1 12 -5 16 -5 3 -10 19 -10 35 0 16 -4 31 -9 34 -11 7 -73 -68 -64 -78
3 -3 1 -6 -5 -6 -7 0 -12 -5 -12 -11 0 -5 -11 -27 -25 -47 -14 -20 -25 -44
-25 -53 0 -9 -7 -23 -16 -30 -9 -7 -20 -23 -25 -36 -8 -22 -29 -32 -29 -15 0
13 53 117 62 120 4 2 8 10 8 17 0 7 7 26 15 41 8 16 15 37 15 46 0 9 11 29 26
43 14 14 22 30 19 35 -3 6 -1 10 4 10 6 0 11 7 11 15 0 18 29 65 40 65 4 0 15
-11 24 -25z m3444 -7 c-2 -13 -11 -24 -20 -26 -14 -3 -15 0 -5 22 15 32 30 34
25 4z m4111 3 c13 -23 -13 -81 -35 -81 -8 0 -14 -6 -14 -14 0 -8 -9 -18 -20
-21 -11 -3 -25 -15 -30 -26 -6 -10 -16 -19 -21 -19 -6 0 -24 -11 -41 -25 -34
-29 -64 -32 -96 -9 -32 22 -28 39 21 85 47 43 58 50 134 88 26 13 55 27 63 32
23 12 28 11 39 -10z m-5019 -16 c-7 -9 -15 -13 -17 -11 -7 7 7 26 19 26 6 0 6
-6 -2 -15z m-1218 -11 c20 -12 6 -13 -100 -14 -94 0 -123 -3 -119 -12 2 -9 27
-13 75 -13 82 0 119 -19 58 -30 -34 -7 -63 -35 -50 -48 3 -3 -4 -3 -15 0 -13
3 -29 -1 -39 -10 -9 -8 -43 -18 -74 -22 -54 -7 -82 -25 -38 -25 29 0 15 -26
-23 -41 -18 -7 -36 -19 -40 -26 -4 -7 -14 -13 -22 -13 -8 0 -20 -8 -27 -17 -7
-10 -27 -26 -43 -35 -17 -9 -30 -23 -30 -30 0 -7 -8 -12 -17 -10 -10 1 -43
-22 -76 -55 -33 -32 -71 -66 -86 -76 -15 -11 -31 -30 -36 -43 -5 -13 -17 -24
-26 -24 -9 0 -14 -6 -11 -13 3 -8 -7 -21 -24 -31 -16 -9 -29 -23 -29 -31 0 -7
-9 -17 -20 -20 -11 -3 -20 -13 -20 -20 0 -8 -10 -21 -22 -30 -13 -8 -22 -19
-21 -23 2 -8 -16 -7 -97 4 -30 4 -87 7 -127 6 -69 -2 -71 -1 -65 21 7 27 181
202 211 212 11 3 21 10 21 16 0 14 33 49 47 49 7 0 13 6 13 14 0 8 9 18 20 21
16 5 157 111 180 135 3 3 23 14 45 25 22 11 54 32 70 47 17 16 36 28 43 28 7
0 33 14 57 30 24 17 49 30 55 30 7 0 23 9 37 20 14 11 32 20 39 20 7 0 30 12
51 26 35 24 44 25 144 23 65 -1 116 -7 131 -15z m1021 -26 c3 -23 13 -47 21
-54 9 -6 16 -18 16 -26 0 -9 7 -21 15 -28 8 -7 15 -22 15 -35 0 -12 9 -30 20
-40 11 -10 20 -26 20 -35 0 -10 7 -20 15 -24 8 -3 15 -16 15 -29 0 -13 13 -36
30 -52 17 -16 30 -34 30 -40 0 -7 11 -21 25 -31 18 -13 25 -28 25 -51 0 -30
-3 -33 -30 -33 -20 0 -30 5 -30 15 0 8 -5 15 -11 15 -17 0 -48 40 -69 88 -5
12 -14 22 -20 22 -5 0 -10 7 -10 15 0 9 -7 18 -15 21 -8 3 -17 21 -21 40 -3
18 -12 38 -19 44 -8 6 -19 33 -26 61 -13 51 -27 63 -36 29 -3 -11 -12 -20 -19
-20 -8 0 -14 -9 -14 -19 0 -11 -6 -26 -12 -33 -7 -7 -19 -25 -27 -40 -16 -32
-29 -35 -38 -12 -8 22 17 94 34 94 8 0 13 11 13 28 0 15 7 38 15 52 8 14 19
35 24 48 6 12 15 22 21 22 6 0 10 6 9 13 -3 25 1 37 15 37 8 0 16 -16 19 -42z
m-3129 22 l26 -10 0 -130 c0 -72 4 -138 9 -148 11 -20 28 -166 23 -198 -3 -23
-44 -42 -50 -24 -2 6 -8 10 -13 10 -6 0 -7 -4 -4 -10 3 -5 -3 -10 -13 -10 -31
0 -48 37 -66 145 -10 55 -21 109 -26 120 -17 40 -31 140 -20 143 5 2 10 8 10
14 0 12 80 108 91 108 4 0 19 -4 33 -10z m1134 -32 c7 -7 12 -20 12 -30 0 -13
-8 -18 -30 -18 -25 0 -30 4 -30 23 0 37 24 49 48 25z m2932 -28 c0 -5 -4 -10
-10 -10 -5 0 -10 5 -10 10 0 6 5 10 10 10 6 0 10 -4 10 -10z m123 -112 c6 -19
-4 -48 -17 -48 -15 0 -38 38 -31 50 9 14 43 12 48 -2z m-453 -114 c0 -9 14
-21 30 -27 17 -6 30 -15 30 -19 0 -12 -28 -10 -35 2 -3 6 -11 10 -16 10 -6 0
-7 -6 -3 -12 5 -8 -2 -6 -16 3 -33 21 -39 59 -11 59 13 0 21 -6 21 -16z m-762
-6 c24 -24 11 -51 -52 -114 -69 -69 -95 -78 -112 -40 -10 21 -8 28 15 50 15
14 32 26 38 26 15 0 83 64 83 78 0 15 13 15 28 0z m1431 -40 c4 -13 12 -45 16
-73 4 -31 14 -54 26 -63 12 -8 19 -25 19 -46 0 -31 16 -60 62 -110 10 -11 18
-29 18 -41 0 -11 13 -36 30 -55 23 -28 29 -45 30 -82 0 -43 -2 -48 -27 -54
-14 -4 -40 -2 -57 4 -17 6 -48 14 -69 18 -32 5 -36 4 -31 -10 4 -9 15 -21 25
-27 11 -5 19 -19 19 -30 0 -12 17 -42 39 -68 40 -47 68 -118 58 -144 -4 -11
-17 -13 -52 -9 -45 5 -47 4 -36 -16 6 -11 15 -22 20 -24 5 -1 13 -16 17 -32 7
-28 6 -29 -22 -22 -16 4 -30 12 -32 17 -2 5 -12 9 -22 9 -12 0 -21 10 -25 31
-4 17 -15 33 -25 36 -17 5 -40 77 -32 101 6 18 62 15 62 -3 0 -16 55 -55 78
-55 20 0 14 27 -8 33 -11 3 -20 14 -20 24 0 11 -11 30 -24 42 -13 12 -29 43
-36 68 -7 24 -19 47 -26 50 -7 2 -16 17 -19 33 -3 16 -13 34 -21 41 -8 6 -14
20 -14 31 0 31 29 33 59 4 21 -20 41 -27 91 -33 l63 -6 -29 36 c-16 21 -32 37
-36 37 -5 0 -8 7 -8 15 0 8 -4 15 -10 15 -5 0 -10 7 -10 15 0 9 -6 18 -14 21
-8 3 -17 22 -21 42 -3 20 -14 48 -22 62 -9 13 -19 38 -22 54 -4 16 -11 31 -17
33 -16 5 -64 -36 -64 -55 0 -9 -24 -47 -54 -84 -30 -37 -56 -72 -58 -79 -3 -8
-11 -10 -23 -5 -14 5 -16 9 -7 18 7 7 12 22 12 34 0 12 7 27 15 34 8 7 15 20
15 30 0 9 9 25 20 35 11 10 20 23 20 30 0 6 11 21 25 33 14 12 25 29 25 37 0
9 11 33 25 53 14 20 25 45 25 54 0 29 68 25 79 -4z m-3855 -37 c-21 -21 -29
-19 -21 4 4 8 14 15 23 15 16 0 16 -2 -2 -19z m3216 9 c0 -5 -2 -10 -4 -10 -3
0 -8 5 -11 10 -3 6 -1 10 4 10 6 0 11 -4 11 -10z m105 0 c18 -8 17 -9 -7 -9
-15 -1 -30 4 -33 9 -7 12 12 12 40 0z m967 -2 c9 -26 -8 -63 -27 -63 -21 0
-32 33 -21 61 7 17 42 19 48 2z m-5458 -58 c14 -27 26 -55 26 -61 0 -10 68
-161 92 -204 80 -142 104 -221 71 -232 -16 -6 -62 43 -79 84 -8 17 -25 48 -39
69 -14 20 -25 43 -25 51 0 8 -11 29 -25 47 -14 18 -25 38 -25 44 0 9 -20 53
-42 92 -26 46 -33 72 -30 113 3 33 9 47 20 50 24 5 27 2 56 -53z m4472 -48
c24 -23 44 -52 44 -62 0 -12 7 -20 16 -20 9 0 18 -9 21 -20 3 -11 11 -20 19
-20 7 0 16 -5 20 -11 13 -21 -116 -4 -160 20 -21 12 -40 21 -42 19 -1 -2 19
-28 47 -58 27 -30 49 -59 49 -65 0 -7 13 -30 29 -52 40 -55 63 -102 56 -113
-3 -6 -24 -10 -46 -10 -39 0 -65 -23 -42 -39 5 -3 17 -23 26 -43 10 -21 24
-38 32 -38 17 0 28 -31 19 -54 -9 -24 -25 -20 -68 19 -22 19 -43 35 -47 35 -9
0 -49 68 -49 84 0 7 -11 23 -25 36 -14 13 -25 29 -25 36 0 6 -7 17 -15 24 -22
18 -15 51 13 61 18 7 27 3 49 -21 14 -17 34 -30 43 -30 10 0 23 -7 30 -15 7
-8 17 -12 23 -8 6 4 1 10 -11 14 -12 5 -22 16 -22 25 0 9 -13 32 -30 51 -16
18 -30 44 -30 56 0 13 -8 32 -17 43 -43 48 -64 87 -66 121 -2 35 0 38 22 35
27 -3 80 -49 81 -69 0 -7 7 -13 15 -13 9 0 25 -9 37 -20 23 -21 48 -27 48 -10
0 5 -13 25 -30 43 -16 19 -30 42 -30 51 0 9 -6 16 -14 16 -17 0 -46 54 -46 84
0 17 3 16 16 -9 8 -16 35 -49 60 -73z m-3326 58 c0 -5 -8 -10 -17 -10 -15 0
-16 2 -3 10 19 12 20 12 20 0z m6509 -34 c6 -8 43 -17 84 -21 39 -3 77 -10 82
-15 6 -4 41 -16 80 -25 38 -10 77 -22 85 -26 8 -4 35 -17 60 -28 25 -11 60
-30 79 -41 40 -22 121 -99 121 -114 0 -5 19 -28 43 -51 84 -82 110 -143 115
-267 7 -174 -18 -263 -105 -381 -24 -31 -43 -60 -43 -64 0 -7 -108 -113 -115
-113 -3 0 -27 -16 -54 -35 -26 -19 -55 -35 -63 -35 -9 0 -21 -7 -28 -15 -7 -8
-19 -15 -28 -15 -18 0 -85 -22 -92 -31 -6 -7 -175 -29 -224 -29 -20 0 -36 -3
-36 -7 0 -3 16 -40 36 -82 57 -120 62 -132 80 -196 9 -33 20 -65 25 -71 4 -5
15 -68 24 -140 9 -71 21 -137 26 -146 11 -21 12 -361 2 -372 -5 -4 -14 -53
-20 -109 -20 -164 -25 -191 -34 -201 -5 -6 -9 -20 -9 -33 0 -13 -4 -23 -10
-23 -6 0 -10 75 -10 205 0 204 -12 382 -29 420 -5 11 -15 49 -21 85 -7 36 -16
70 -20 75 -5 6 -15 37 -24 70 -39 153 -205 425 -313 514 -39 32 -40 60 -1 62
45 2 83 -3 92 -12 13 -12 281 -12 304 0 9 5 60 14 112 21 52 7 102 18 110 25
8 7 32 18 52 24 20 7 42 19 48 27 7 7 21 14 31 14 10 0 24 9 31 20 7 11 17 20
23 20 14 0 125 112 125 128 0 7 7 15 15 18 8 4 24 25 35 48 11 22 23 48 28 56
43 75 52 108 54 206 2 64 -1 106 -8 115 -7 8 -20 42 -29 77 -11 37 -23 62 -31
62 -8 0 -14 4 -14 9 0 15 -115 124 -191 182 -74 56 -152 99 -180 99 -8 0 -23
6 -34 14 -46 31 -123 41 -300 40 -139 0 -276 -16 -300 -34 -5 -4 -35 -13 -66
-19 -31 -7 -71 -20 -90 -30 -19 -10 -50 -22 -69 -26 -19 -4 -37 -10 -40 -14
-3 -4 -25 -15 -50 -26 -25 -11 -47 -22 -50 -25 -11 -11 -72 -40 -86 -40 -8 0
-14 -3 -14 -8 0 -4 -14 -14 -32 -21 -18 -8 -51 -31 -73 -50 -68 -60 -105 -76
-105 -43 0 10 -5 23 -12 30 -21 21 22 57 142 119 19 10 37 21 40 24 13 17 186
97 255 119 22 7 45 16 50 20 6 4 44 16 85 26 41 10 77 22 80 25 7 9 106 29
145 29 19 0 35 5 35 10 0 16 205 13 219 -4z m-3790 -39 c8 -7 28 -16 45 -22
42 -14 48 -45 8 -45 -16 0 -42 6 -58 14 -48 23 -74 29 -74 16 0 -16 62 -82
127 -135 29 -23 50 -45 47 -47 -2 -3 2 -11 11 -18 26 -22 17 -30 -34 -30 -31
0 -53 5 -61 15 -14 17 -46 20 -55 5 -3 -5 -15 -10 -26 -10 -11 0 -17 -4 -14
-10 3 -5 1 -10 -5 -10 -6 0 -13 8 -16 18 -3 9 -14 35 -25 57 -36 75 -16 92 55
44 26 -17 50 -28 54 -24 4 4 1 10 -5 12 -7 3 -13 11 -13 19 0 7 -13 20 -30 29
-37 19 -54 47 -37 64 9 9 9 16 -1 31 -26 42 -17 53 40 46 29 -4 59 -13 67 -19z
m4206 3 c6 -4 37 -15 70 -25 33 -9 65 -20 70 -24 6 -4 38 -16 73 -26 34 -10
62 -21 62 -24 0 -3 12 -12 28 -18 15 -7 50 -33 79 -58 28 -25 56 -45 62 -45 6
0 11 -7 11 -15 0 -9 8 -19 18 -22 22 -9 42 -29 42 -42 0 -6 7 -11 15 -11 8 0
15 -5 15 -11 0 -6 15 -32 33 -58 18 -25 46 -73 62 -106 16 -33 35 -73 44 -90
18 -36 29 -284 14 -318 -6 -12 -20 -42 -32 -65 -11 -24 -21 -48 -21 -53 0 -37
-168 -213 -235 -246 -22 -11 -55 -28 -73 -38 -18 -9 -60 -19 -92 -22 -56 -5
-60 -4 -69 18 -12 34 8 68 71 117 29 22 69 57 87 76 19 20 40 36 47 36 6 0 14
9 17 21 3 11 15 23 26 26 12 3 21 10 21 15 0 6 12 24 26 41 80 95 113 268 82
432 -10 54 -55 155 -75 168 -7 4 -13 15 -13 23 0 22 -125 149 -165 169 -19 8
-57 31 -85 49 -29 19 -68 37 -88 41 -20 4 -56 18 -79 31 -24 13 -61 27 -83 30
-21 4 -47 15 -57 26 -18 20 -17 20 32 13 28 -4 55 -11 60 -15z m-6815 -7 c0
-34 -12 -63 -26 -63 -8 0 -14 -10 -14 -25 0 -14 -7 -28 -15 -31 -8 -4 -15 -17
-15 -30 0 -13 -3 -24 -8 -24 -4 0 -13 -13 -20 -30 -8 -16 -20 -30 -28 -30 -18
0 -17 20 1 44 8 11 15 30 15 42 0 14 8 25 20 29 11 3 20 13 20 22 0 8 9 28 21
44 23 33 12 39 -16 9 -10 -11 -24 -20 -32 -20 -7 0 -13 -7 -13 -15 0 -17 -16
-20 -25 -5 -3 5 7 16 22 24 15 8 41 28 57 45 33 35 56 40 56 14z m4150 -88 c0
-18 -5 -25 -19 -25 -11 0 -21 6 -24 13 -7 20 4 37 24 37 14 0 19 -7 19 -25z
m-2664 -100 c16 -8 37 -15 46 -15 10 0 22 -9 28 -19 5 -11 25 -22 47 -26 47
-8 77 -31 90 -70 l10 -31 -146 -1 c-80 0 -164 -4 -186 -7 -22 -4 -66 -9 -97
-13 -32 -3 -58 -10 -58 -15 0 -4 -12 -14 -27 -21 -15 -6 -37 -21 -49 -32 -12
-11 -36 -30 -52 -43 l-30 -22 -21 26 c-12 15 -21 35 -21 45 0 11 -7 19 -15 19
-8 0 -26 11 -40 26 -19 19 -23 29 -16 42 13 23 80 82 95 82 6 0 18 9 26 20 8
12 37 27 64 35 27 8 57 21 65 29 31 28 228 22 287 -9z m-566 -49 c0 -2 -8 -10
-17 -17 -16 -13 -17 -12 -4 4 13 16 21 21 21 13z m1759 -203 c30 -29 52 -56
48 -59 -16 -16 -90 37 -102 75 -3 11 -11 21 -16 21 -5 0 -9 7 -9 15 0 8 -4 15
-9 15 -10 0 -61 71 -61 85 0 5 21 -15 47 -45 26 -30 72 -79 102 -107z m-2054
110 c22 -11 55 -24 72 -28 18 -3 35 -11 38 -16 4 -5 12 -9 20 -9 8 0 31 -10
52 -22 20 -13 43 -23 51 -23 7 0 37 -22 67 -49 63 -56 71 -91 31 -139 -20 -25
-24 -26 -30 -12 -3 9 -4 20 -1 25 3 4 -4 10 -15 13 -11 3 -20 12 -20 21 0 18
-57 76 -75 76 -7 0 -15 7 -19 15 -3 8 -11 15 -18 15 -6 0 -21 8 -32 19 -12 10
-48 26 -81 36 -33 9 -73 21 -89 26 -40 13 -403 12 -411 -1 -3 -5 -19 -10 -36
-10 -16 0 -29 -4 -29 -10 0 -5 -11 -10 -24 -10 -26 0 -146 -75 -146 -92 0 -5
-9 -21 -20 -35 -11 -14 -20 -36 -20 -49 0 -12 -4 -25 -9 -29 -5 -3 -17 -29
-27 -58 -9 -28 -20 -54 -25 -57 -4 -3 -10 -25 -13 -50 -2 -25 -5 -46 -5 -47
-1 -2 -5 -3 -11 -3 -13 0 -13 94 -1 118 5 9 16 32 23 50 7 17 16 32 20 32 5 0
8 8 8 18 0 9 9 34 20 55 11 20 20 41 20 46 0 33 137 131 183 131 14 0 30 7 37
15 7 8 25 15 41 15 15 0 31 5 34 10 3 6 16 10 29 10 12 0 26 4 32 9 15 15 62
19 204 17 115 -2 141 -5 175 -23z m5485 -57 c0 -2 -8 -10 -17 -17 -16 -13 -17
-12 -4 4 13 16 21 21 21 13z m-4381 -61 c39 -5 71 -15 81 -25 10 -10 36 -21
59 -25 22 -4 43 -11 47 -16 3 -5 16 -9 30 -9 15 0 24 -6 24 -15 0 -8 6 -15 14
-15 8 0 24 -13 37 -30 13 -16 30 -30 36 -30 7 0 18 -9 25 -20 7 -11 20 -20 28
-20 25 -1 106 -83 114 -115 4 -16 3 -25 -1 -19 -4 6 -21 14 -36 18 -15 4 -26
10 -23 15 7 10 -27 27 -81 41 -24 6 -43 15 -43 20 0 6 -6 10 -14 10 -7 0 -18
6 -24 13 -6 7 -32 14 -58 15 -25 1 -53 7 -60 13 -10 8 -14 8 -14 0 0 -6 -9
-11 -21 -11 -11 0 -17 5 -14 10 3 6 1 10 -4 10 -6 0 -11 -4 -11 -9 0 -5 -12
-10 -27 -9 -16 0 -68 -5 -116 -11 -48 -7 -92 -9 -97 -6 -6 4 -10 1 -10 -6 0
-6 -8 -9 -20 -6 -12 3 -23 -1 -28 -10 -5 -8 -24 -16 -43 -17 -19 -2 -43 -7
-54 -13 -11 -6 -26 -8 -32 -6 -7 3 -13 -2 -13 -11 0 -9 -8 -16 -20 -16 -36 0
-72 -22 -67 -42 3 -10 1 -15 -5 -12 -17 11 -78 -6 -78 -21 0 -8 -6 -15 -14
-15 -7 0 -20 -7 -27 -16 -7 -9 -24 -20 -37 -25 -15 -6 -21 -14 -16 -21 4 -7 4
-10 -1 -6 -4 4 -21 -4 -37 -17 -16 -14 -36 -25 -44 -25 -9 0 -13 -4 -10 -8 3
-5 -13 -26 -34 -46 -22 -21 -40 -45 -40 -54 0 -10 -9 -23 -20 -30 -11 -7 -20
-18 -20 -26 0 -7 -9 -23 -20 -36 -18 -21 -25 -41 -21 -62 0 -5 -4 -8 -9 -8 -6
0 -10 -6 -10 -13 0 -8 -11 -24 -25 -37 -15 -14 -25 -35 -25 -52 0 -25 3 -28
35 -28 25 0 35 4 35 15 0 9 11 20 25 25 14 5 25 15 25 22 0 16 61 78 77 78 7
0 13 5 13 10 0 6 7 10 15 10 8 0 20 9 27 20 7 11 18 20 24 20 6 0 19 9 29 20
10 11 27 20 37 20 11 0 22 9 25 20 3 11 11 20 18 20 7 0 24 9 38 20 15 12 50
27 79 35 29 8 84 30 122 50 48 24 83 35 112 35 24 0 46 5 49 11 4 6 28 10 54
8 25 -1 54 2 65 6 16 7 111 -2 218 -21 21 -3 42 -12 48 -19 6 -8 17 -12 25 -9
7 3 16 1 20 -5 3 -6 15 -11 26 -11 11 0 37 -8 57 -19 86 -43 104 -51 114 -51
11 0 88 -78 88 -89 0 -4 11 -18 25 -31 14 -13 25 -34 25 -46 0 -13 5 -36 11
-51 41 -102 41 -103 19 -103 -11 0 -20 5 -20 11 0 10 -44 54 -76 77 -30 21
-52 33 -76 43 -16 6 -28 15 -28 20 0 5 -3 8 -7 7 -9 -1 -40 9 -65 23 -10 5
-29 9 -43 9 -14 0 -25 4 -25 9 0 14 -94 32 -190 36 -48 3 -86 9 -88 15 -3 7
-8 8 -16 1 -7 -6 -45 -11 -86 -12 -41 -1 -79 -5 -85 -8 -5 -3 -19 -7 -30 -8
-24 -4 -65 -10 -82 -12 -7 0 -13 -7 -13 -15 0 -9 -7 -12 -19 -9 -24 6 -64 -15
-55 -29 4 -7 3 -8 -5 -4 -6 4 -9 12 -6 17 4 5 2 9 -4 9 -5 0 -14 -6 -18 -13
-4 -8 -30 -22 -58 -32 -27 -10 -66 -31 -86 -47 -20 -15 -39 -25 -42 -22 -9 9
-48 -22 -39 -31 4 -5 2 -5 -5 -2 -15 9 -66 -10 -59 -22 3 -5 -4 -11 -15 -14
-11 -3 -23 -14 -26 -24 -3 -10 -37 -40 -75 -68 -39 -27 -79 -58 -89 -67 -11
-10 -26 -18 -34 -18 -8 0 -15 -7 -15 -15 0 -8 -6 -15 -14 -15 -17 0 -86 -70
-86 -87 0 -7 -9 -13 -21 -13 -15 0 -20 -5 -17 -22 4 -32 30 -33 66 -3 16 14
36 25 43 25 7 0 25 12 40 26 30 29 59 47 102 65 15 6 27 17 27 25 0 8 10 14
23 14 12 0 45 11 72 25 28 13 58 25 67 25 9 0 20 5 23 10 4 6 11 8 16 5 5 -4
21 1 36 9 39 21 131 48 141 42 5 -3 18 1 28 9 15 11 60 14 211 15 105 0 194
-4 197 -9 3 -5 21 -12 39 -15 19 -3 51 -20 73 -36 21 -16 44 -30 51 -30 6 0
24 -11 40 -24 15 -13 37 -25 47 -27 11 -2 21 -10 24 -18 3 -10 0 -12 -14 -7
-11 4 -40 10 -66 13 -27 3 -48 10 -48 14 0 14 -268 11 -272 -3 -3 -7 -22 -11
-49 -9 -58 2 -140 -9 -134 -18 2 -5 -7 -6 -22 -3 -22 4 -25 2 -19 -13 6 -16 4
-16 -10 -4 -21 17 -17 17 -37 -2 -8 -9 -34 -19 -56 -23 -23 -3 -41 -11 -41
-16 0 -6 -6 -10 -14 -10 -8 0 -21 -7 -30 -15 -8 -9 -18 -16 -21 -15 -29 2 -36
-2 -32 -14 4 -10 1 -13 -7 -10 -7 3 -24 -5 -37 -16 -13 -12 -17 -18 -9 -14 8
4 11 3 7 -1 -4 -5 -14 -10 -23 -11 -58 -9 -294 -242 -294 -291 0 -11 -6 -26
-14 -32 -17 -14 -17 -51 -1 -51 6 0 20 9 31 20 59 61 70 70 82 70 7 0 17 11
22 25 5 14 21 30 35 35 14 5 28 17 31 25 4 8 17 15 29 15 13 0 31 8 41 17 20
20 89 53 111 53 8 0 26 8 39 19 15 12 49 21 91 26 38 4 73 10 78 15 11 8 116
19 230 24 77 3 192 -11 201 -25 3 -5 15 -9 26 -9 40 0 97 -23 128 -51 17 -16
35 -29 39 -29 4 0 16 -9 26 -20 10 -11 27 -20 37 -20 10 0 21 -7 25 -16 3 -9
17 -28 29 -42 24 -25 32 -66 15 -77 -6 -3 -13 -26 -17 -50 -4 -28 -11 -45 -20
-45 -7 0 -11 -6 -9 -12 5 -14 -49 -78 -65 -78 -5 0 -10 -5 -10 -11 0 -16 -48
-59 -66 -59 -7 0 -14 -4 -14 -9 0 -5 -8 -11 -17 -15 -10 -3 -40 -24 -68 -46
-27 -22 -71 -47 -97 -56 -27 -8 -48 -19 -48 -24 0 -4 -22 -13 -48 -20 -27 -6
-61 -18 -76 -25 -36 -19 -370 -23 -392 -4 -11 9 -17 9 -28 0 -10 -8 -16 -9
-21 -2 -4 7 -13 7 -27 -2 -16 -9 -22 -9 -25 1 -3 6 -20 12 -38 12 -19 0 -56 4
-82 10 -26 5 -86 12 -132 14 -47 3 -88 11 -91 17 -6 8 -9 8 -14 0 -8 -13 -76
-15 -76 -3 0 5 -55 17 -122 26 -68 10 -127 21 -133 25 -5 5 -26 11 -45 15 -19
4 -48 9 -65 13 -16 3 -42 14 -57 24 -14 11 -32 19 -39 19 -18 0 -79 49 -79 64
0 8 -7 19 -15 26 -8 7 -17 28 -20 49 -4 20 -16 53 -27 74 -19 35 -20 55 -19
275 1 130 5 264 11 296 5 32 7 62 5 66 -2 4 2 16 10 26 8 10 15 25 15 33 0 20
42 101 52 101 4 0 11 18 14 40 4 25 13 41 24 45 10 3 25 14 35 25 10 11 28 20
39 20 12 0 35 7 51 16 17 9 59 18 95 20 192 9 235 16 256 38 11 11 23 29 27
39 3 9 13 17 21 17 7 0 16 6 19 13 3 8 22 22 42 31 20 10 41 30 48 44 6 15 39
54 72 87 99 99 165 174 165 190 0 8 7 15 15 15 9 0 15 9 15 23 0 36 23 77 43
77 11 0 26 9 35 19 20 23 93 63 145 80 22 7 51 19 65 27 15 8 43 14 62 14 19
0 41 4 49 9 16 10 172 7 270 -4z m-1463 -104 c-9 -16 -27 -42 -41 -59 -14 -16
-25 -35 -25 -41 0 -7 -13 -41 -30 -76 -16 -35 -30 -78 -30 -95 0 -17 -9 -50
-20 -72 -11 -23 -25 -71 -31 -107 -6 -37 -13 -73 -16 -81 -4 -8 -7 -33 -9 -55
-2 -24 -10 -44 -21 -53 -10 -7 -17 -15 -15 -18 2 -2 1 -10 -1 -17 -10 -22 -7
117 3 187 6 38 17 83 24 100 8 17 17 48 21 69 3 23 11 37 20 37 9 0 15 10 15
24 0 13 7 37 15 52 8 16 15 45 15 65 0 23 7 42 20 54 11 10 20 22 20 28 0 20
63 87 81 87 18 0 19 -2 5 -29z m354 10 c0 -4 -16 -8 -37 -9 -21 -1 -45 -10
-58 -22 -12 -11 -28 -20 -35 -20 -18 0 -80 -60 -80 -76 0 -7 -6 -17 -13 -21
-22 -14 -37 -62 -37 -116 0 -48 3 -55 47 -100 44 -45 50 -48 88 -44 22 2 51 0
65 -5 19 -7 27 -5 37 8 10 14 13 15 13 3 0 -26 -22 -39 -66 -39 -24 0 -46 -5
-50 -11 -4 -8 -9 -8 -17 0 -7 7 -15 7 -23 1 -8 -8 -24 0 -54 25 -23 19 -48 39
-54 43 -18 10 -35 66 -31 99 13 119 18 143 26 143 5 0 12 8 16 18 4 9 19 33
35 52 16 19 37 45 47 56 15 19 28 22 99 22 45 1 82 -3 82 -7z m2606 -162 c4
-8 9 -8 17 0 13 13 153 15 161 2 3 -4 38 -11 78 -14 136 -11 272 -28 283 -36
9 -8 113 -18 250 -26 28 -2 63 -8 78 -14 16 -6 35 -11 43 -11 8 0 14 -6 14
-14 0 -8 16 -15 41 -19 22 -3 48 -12 58 -21 10 -9 27 -16 38 -16 11 0 26 -6
33 -14 6 -8 18 -12 25 -10 8 3 27 -4 44 -17 19 -14 38 -20 55 -17 14 3 26 2
26 -2 0 -3 16 -13 35 -20 20 -8 41 -20 47 -27 6 -7 19 -13 30 -13 10 0 21 -6
24 -14 3 -8 15 -17 27 -20 12 -3 28 -14 35 -26 11 -17 10 -20 -7 -20 -10 0
-29 8 -42 19 -13 10 -42 24 -64 31 -22 7 -49 19 -60 26 -11 7 -40 18 -65 25
-25 7 -55 20 -68 30 -12 9 -31 15 -42 12 -11 -3 -20 0 -20 6 0 6 -13 11 -30
11 -16 0 -30 4 -30 9 0 4 -27 11 -60 15 -57 7 -101 18 -145 36 -11 5 -51 14
-90 21 -38 6 -75 16 -81 20 -12 9 -144 26 -289 36 -44 3 -83 10 -86 15 -3 5
-189 10 -425 11 -230 1 -385 5 -344 8 41 4 87 9 103 12 15 3 103 9 195 13 92
3 171 10 177 15 12 12 22 11 31 -2z m-956 -129 c0 -5 -4 -10 -10 -10 -5 0 -10
5 -10 10 0 6 5 10 10 10 6 0 10 -4 10 -10z m983 -24 c104 -6 111 -16 11 -17
-189 -2 -355 -16 -439 -37 -22 -6 -62 -13 -90 -17 -65 -8 -93 -15 -124 -31
-14 -8 -41 -14 -59 -14 -18 0 -47 -8 -65 -17 -30 -16 -55 -22 -100 -24 -9 0
-31 14 -48 30 -28 28 -29 31 -10 31 12 0 21 4 21 8 0 10 93 32 165 38 28 3 59
9 70 14 11 4 110 14 220 21 110 6 223 15 250 18 28 3 66 5 85 4 19 -2 70 -5
113 -7z m175 -13 c-16 -2 -40 -2 -55 0 -16 2 -3 4 27 4 30 0 43 -2 28 -4z
m2816 -21 c3 -5 -1 -9 -9 -9 -8 0 -12 4 -9 9 3 4 7 8 9 8 2 0 6 -4 9 -8z
m-7349 -102 c6 -4 39 -11 75 -14 36 -4 79 -13 95 -21 17 -7 62 -20 100 -29 39
-9 84 -23 100 -30 17 -8 50 -17 74 -21 31 -5 45 -13 49 -27 3 -15 10 -18 28
-14 22 6 45 -5 299 -137 36 -19 38 -37 5 -37 -16 0 -18 -5 -13 -30 3 -16 3
-30 -1 -30 -3 0 -29 16 -56 35 -27 19 -53 35 -57 35 -5 0 -26 14 -47 30 -22
17 -45 30 -52 30 -6 0 -14 6 -17 13 -2 6 -28 21 -56 32 -28 11 -51 22 -51 26
0 4 -20 13 -45 20 -25 7 -45 16 -45 20 0 4 -17 10 -37 14 -21 3 -56 17 -78 29
-22 13 -65 29 -95 36 -30 7 -60 17 -66 22 -6 4 -49 13 -95 19 -115 15 -129 18
-129 28 0 18 92 19 115 1z m8625 -142 c0 -48 -159 -241 -222 -268 -13 -5 -30
-14 -38 -19 -76 -46 -210 -87 -210 -64 0 11 26 24 80 43 59 20 140 62 140 72
0 5 4 7 9 4 12 -8 162 134 181 170 8 16 21 33 27 37 7 4 13 15 13 22 0 8 5 15
10 15 6 0 10 -5 10 -12z m-7590 -199 c0 -22 4 -38 9 -35 15 10 19 -43 9 -113
-5 -36 -13 -102 -17 -146 -3 -44 -12 -89 -18 -100 -15 -27 -10 -318 6 -323 14
-5 14 -39 1 -47 -7 -4 -7 -11 -2 -18 5 -7 12 -25 15 -42 3 -16 10 -50 17 -74
16 -66 11 -75 -27 -51 -23 13 -33 27 -33 44 0 13 -9 30 -20 37 -11 8 -25 36
-31 64 -7 28 -18 64 -25 80 -14 32 -8 163 8 190 3 6 6 39 7 75 0 36 7 103 16
150 8 47 15 104 15 127 0 23 4 44 9 48 5 3 12 36 16 73 8 86 13 102 31 102 10
0 14 -12 14 -41z m2616 -110 c60 -6 113 -15 119 -20 5 -5 45 -9 88 -9 83 0
318 -26 352 -39 57 -23 96 -31 142 -31 33 0 55 -5 63 -15 11 -13 7 -15 -24
-15 -20 0 -36 4 -36 9 0 16 -140 22 -492 20 -194 -1 -375 -2 -403 -3 -47 -1
-53 2 -100 46 l-50 48 60 1 c33 0 71 5 85 9 36 12 73 11 196 -1z m-3266 -17
c0 -5 69 -12 153 -15 164 -6 237 -21 237 -49 0 -9 -5 -20 -11 -24 -6 -3 -8
-15 -6 -26 4 -14 1 -18 -8 -14 -7 2 -31 8 -52 12 -21 4 -43 10 -49 15 -6 5
-46 14 -90 20 -43 6 -83 15 -89 19 -5 4 -37 8 -69 9 -33 1 -63 4 -67 7 -4 2
-10 0 -13 -5 -4 -6 -21 -5 -44 1 -43 12 -338 3 -356 -11 -16 -12 -146 -22
-146 -11 0 6 9 10 19 10 11 0 21 4 23 9 4 12 255 42 353 43 38 0 79 4 90 9 27
10 125 11 125 1z m4145 -127 l30 -14 -30 6 c-16 3 -39 10 -50 14 l-20 8 20 0
c11 0 34 -6 50 -14z m2253 -80 c-3 -3 -9 2 -12 12 -6 14 -5 15 5 6 7 -7 10
-15 7 -18z m23 -58 c28 -34 13 -57 -36 -57 -24 0 -51 -3 -59 -6 -14 -6 -16 0
-10 37 9 61 18 70 57 57 18 -6 39 -20 48 -31z m-6071 -29 l0 -38 -59 0 c-33 0
-63 -4 -66 -10 -3 -5 -25 -10 -48 -10 -53 0 -220 -29 -227 -39 -3 -4 -33 -14
-67 -21 -35 -8 -63 -17 -63 -21 0 -3 -28 -14 -62 -24 -35 -9 -68 -21 -73 -25
-6 -5 -33 -16 -59 -25 -27 -9 -61 -25 -75 -35 -31 -21 -86 -36 -76 -20 3 6 21
17 38 25 18 9 43 22 57 29 45 25 194 94 220 101 14 4 34 13 45 19 11 7 43 18
70 26 28 7 59 18 70 24 19 10 89 30 145 42 14 3 34 10 45 15 28 12 114 27 153
26 30 -1 32 -3 32 -39z m6108 -73 c2 -11 6 -27 9 -35 3 -8 5 -23 4 -33 -1 -10
3 -25 10 -33 23 -28 -5 -35 -126 -32 -90 2 -119 6 -123 17 -3 8 0 11 6 7 9 -5
62 89 62 112 0 11 64 20 125 18 22 -1 31 -6 33 -21z m-3421 -46 c27 -7 69 -20
95 -30 29 -12 72 -19 113 -19 39 0 75 -6 88 -14 12 -8 38 -17 57 -21 19 -4 54
-16 77 -26 23 -11 51 -19 61 -19 11 0 30 -8 43 -19 13 -10 48 -23 76 -30 29
-6 62 -20 73 -31 11 -11 29 -20 41 -20 11 0 32 -9 46 -20 14 -11 32 -20 39
-20 7 0 28 -8 46 -18 18 -10 55 -25 81 -33 27 -8 53 -22 59 -33 8 -14 7 -17
-4 -12 -7 3 -21 9 -30 12 -10 4 -18 10 -18 15 0 5 -10 9 -23 9 -12 0 -38 8
-57 18 -19 10 -64 25 -100 32 -36 7 -72 19 -80 26 -9 7 -40 19 -70 25 -30 6
-59 18 -63 25 -4 8 -24 14 -45 14 -20 0 -49 6 -63 14 -14 7 -48 17 -75 21 -27
4 -58 9 -69 12 -11 2 -47 7 -81 12 -33 5 -70 13 -81 19 -11 6 -55 15 -97 21
-82 10 -99 19 -121 62 -22 42 -4 48 82 28z m3453 -174 c0 -25 -4 -45 -8 -45
-5 0 -9 -14 -9 -30 0 -17 -4 -34 -9 -39 -5 -5 -49 -3 -99 5 -49 7 -111 13
-137 13 -26 1 -50 6 -53 11 -3 6 -19 10 -35 10 -23 0 -27 4 -23 20 3 10 14 22
24 25 10 4 19 10 19 15 0 4 10 20 23 34 22 25 24 26 165 26 l142 0 0 -45z
m-6290 -11 c0 -23 -41 -41 -120 -54 -41 -7 -89 -18 -106 -26 -16 -7 -50 -16
-75 -20 -24 -4 -55 -12 -69 -19 -14 -7 -45 -19 -70 -26 -25 -7 -49 -16 -54
-20 -5 -4 -15 -5 -22 -2 -8 3 -20 1 -27 -5 -6 -5 -30 -15 -52 -21 -22 -7 -49
-16 -60 -21 -11 -4 -46 -16 -77 -25 -32 -9 -60 -21 -64 -26 -3 -5 -12 -9 -21
-9 -8 0 -31 -7 -51 -16 -69 -31 -127 -59 -132 -65 -13 -15 -52 -17 -57 -3 -7
19 34 64 58 64 10 0 20 4 24 9 3 5 18 12 34 16 16 3 32 13 35 21 3 8 15 14 27
14 12 0 47 12 78 26 114 53 137 62 176 74 22 7 54 19 70 26 17 7 50 18 75 24
25 7 54 16 65 20 20 9 136 39 165 44 8 1 22 5 30 9 29 12 165 32 193 29 15 -3
27 -10 27 -18z m5973 -113 c7 -5 64 -12 127 -16 160 -9 158 -8 156 -49 0 -19
-5 -34 -10 -33 -4 1 -10 -9 -12 -23 -3 -13 -9 -29 -14 -34 -6 -6 -10 -20 -10
-33 0 -15 -6 -23 -17 -24 -32 -2 -68 3 -78 10 -10 8 -75 25 -135 37 -19 3 -39
10 -45 14 -5 4 -28 10 -50 12 -34 4 -81 15 -153 34 -9 3 -1 14 20 31 18 16 35
31 36 36 2 4 8 5 13 1 8 -5 13 10 10 29 -1 5 3 6 7 3 5 -3 17 3 26 13 14 15
24 17 67 10 28 -4 56 -12 62 -18z m-718 -19 c-3 -3 -11 0 -18 7 -9 10 -8 11 6
5 10 -3 15 -9 12 -12z m-1998 -58 c5 -15 50 -39 66 -36 4 1 6 -2 5 -7 -4 -14
86 -58 116 -56 13 0 22 -3 20 -7 -6 -9 51 -39 60 -31 3 4 6 1 6 -5 0 -6 16
-14 35 -18 19 -3 39 -12 43 -18 4 -7 37 -20 75 -30 37 -10 67 -22 67 -27 0 -5
12 -9 26 -9 18 0 40 -16 75 -55 28 -29 51 -57 52 -61 1 -4 26 -30 55 -57 28
-28 52 -54 52 -58 0 -15 -30 -10 -47 7 -9 8 -22 13 -30 10 -8 -3 -11 -1 -8 4
3 6 -1 10 -9 10 -8 0 -22 7 -31 16 -8 9 -22 13 -31 10 -8 -3 -13 -2 -10 3 7
11 -22 23 -35 15 -5 -3 -9 -1 -9 5 0 15 -68 53 -81 45 -8 -4 -9 -3 -5 4 4 7
-9 19 -31 30 -21 11 -69 36 -108 56 -38 20 -76 34 -83 31 -7 -3 -11 -1 -8 4 3
5 -8 14 -24 21 -16 7 -35 18 -41 26 -6 8 -20 14 -30 14 -11 0 -19 6 -19 13 0
6 -19 21 -43 32 -23 11 -46 25 -50 33 -5 7 -14 9 -20 6 -7 -4 -9 -4 -5 1 4 4
-6 23 -22 42 -17 19 -28 38 -25 44 10 15 45 10 52 -7z m633 -4 c0 -5 -4 -10
-9 -10 -6 0 -13 5 -16 10 -3 6 1 10 9 10 9 0 16 -4 16 -10z m85 -48 c19 -13
18 -14 -9 -7 -16 3 -39 13 -50 21 -20 14 -20 15 9 8 17 -4 39 -14 50 -22z
m-3925 0 c0 -22 -29 -41 -70 -45 -67 -7 -122 -17 -145 -26 -11 -5 -45 -14 -75
-21 -30 -7 -59 -16 -65 -20 -5 -5 -30 -13 -55 -19 -25 -6 -64 -21 -87 -33 -35
-18 -44 -20 -57 -9 -33 27 -21 38 114 98 57 26 109 40 183 48 31 4 57 11 57
16 0 4 21 10 48 12 94 7 152 7 152 -1z m5676 -13 c3 -5 20 -9 39 -9 19 0 37
-4 40 -10 3 -5 16 -10 28 -10 12 0 36 -9 52 -20 17 -11 41 -20 55 -20 14 0 43
-9 65 -20 22 -11 50 -20 62 -20 13 0 31 -4 41 -9 9 -5 25 -12 35 -15 9 -3 17
-10 17 -15 0 -6 -7 -8 -15 -5 -8 4 -15 1 -15 -4 0 -14 -47 -84 -63 -94 -20
-13 -73 -9 -103 7 -16 8 -37 15 -46 15 -9 0 -20 5 -23 10 -3 6 -14 10 -24 10
-10 0 -24 7 -31 15 -7 8 -28 17 -49 21 -20 3 -48 14 -63 25 -15 10 -42 19 -61
19 -31 0 -117 45 -117 62 0 4 14 15 30 23 17 9 28 20 25 25 -3 6 0 8 7 5 7 -3
27 3 43 13 29 18 60 18 71 1z m959 -210 c-3 -4 1 -9 7 -12 10 -3 11 -9 1 -26
-7 -11 -13 -42 -14 -68 0 -42 -16 -108 -18 -75 -1 6 -12 12 -26 12 -34 0 -32
-21 4 -42 31 -17 33 -32 14 -108 -9 -33 -11 -35 -48 -32 -59 5 -78 19 -70 50
3 15 13 32 21 38 7 6 17 26 21 45 3 19 16 50 29 69 22 35 28 63 40 180 3 36
10 67 15 68 5 2 10 11 10 20 1 10 5 -12 10 -47 4 -35 6 -68 4 -72z m-1072 58
c15 -9 33 -17 40 -17 8 0 22 -9 31 -19 10 -11 31 -23 47 -26 16 -4 29 -12 29
-19 0 -7 27 -18 68 -25 37 -7 79 -21 94 -32 15 -10 36 -19 48 -19 11 0 20 -3
20 -6 0 -8 -27 -34 -37 -34 -4 0 -14 -9 -21 -20 -7 -12 -24 -25 -38 -30 -14
-6 -22 -14 -19 -20 12 -20 -121 40 -182 81 -23 16 -48 29 -57 29 -8 0 -21 8
-28 19 -7 10 -28 22 -46 25 -17 4 -32 12 -32 17 0 5 -11 9 -25 9 -14 0 -28 7
-31 15 -4 8 -13 15 -21 15 -9 0 -24 10 -34 21 -11 13 -26 20 -37 17 -15 -4
-18 -1 -15 12 3 11 18 21 39 25 19 3 34 10 34 16 0 5 10 13 21 18 23 8 102
-19 152 -52z m-2832 26 c13 -16 12 -17 -3 -4 -10 7 -18 15 -18 17 0 8 8 3 21
-13z m-2321 -13 c0 -12 98 -33 123 -26 14 3 29 -2 43 -15 18 -17 21 -28 16
-67 -2 -26 -8 -51 -12 -57 -4 -5 -11 -104 -15 -220 -4 -115 -9 -213 -11 -217
-2 -3 -5 -61 -5 -129 l-1 -123 -24 52 c-13 29 -27 70 -30 92 -4 22 -11 43 -15
46 -5 3 -9 16 -9 29 0 13 -4 26 -9 29 -4 3 -11 28 -15 56 -4 27 -10 50 -15 50
-10 0 -31 100 -31 146 0 18 -4 35 -8 38 -4 2 -7 17 -6 33 1 15 -3 33 -8 40
-11 14 -24 224 -15 246 6 16 47 13 47 -3z m4770 -18 c0 -5 -7 -9 -15 -9 -8 0
-12 4 -9 9 3 4 9 8 15 8 5 0 9 -4 9 -8z m112 -57 c25 -19 65 -39 87 -46 23 -7
41 -15 41 -19 0 -4 15 -13 33 -21 17 -7 46 -23 63 -36 17 -13 36 -23 41 -23 6
0 16 -7 23 -15 7 -8 28 -17 49 -21 20 -4 38 -10 41 -13 8 -10 44 -31 63 -38
21 -7 18 -23 -9 -37 -10 -6 -23 -17 -27 -24 -5 -7 -12 -10 -17 -7 -4 3 -25 -1
-46 -8 -38 -13 -84 -4 -84 15 0 5 -7 8 -14 8 -8 0 -43 21 -78 48 -35 26 -80
55 -100 65 -21 10 -38 22 -38 27 0 6 -9 10 -20 10 -11 0 -20 7 -20 16 0 8 -13
20 -30 25 -16 6 -30 17 -30 25 0 8 -8 14 -17 14 -16 1 -83 53 -83 65 0 3 9 5
21 5 11 0 18 3 16 8 -3 4 16 8 42 8 38 2 54 -4 93 -31z m-6574 -7 c-3 -7 -24
-23 -49 -35 -24 -13 -45 -28 -47 -33 -2 -6 -9 -10 -16 -10 -7 0 -32 -13 -54
-30 -23 -16 -46 -30 -51 -30 -6 0 -17 -10 -25 -21 -9 -13 -21 -19 -30 -16 -20
8 -21 37 -2 37 7 0 19 7 27 16 15 19 113 84 125 84 5 0 25 11 44 25 37 25 85
34 78 13z m2037 -14 c6 -7 35 -15 65 -17 30 -3 87 -8 125 -12 39 -3 81 -9 95
-12 14 -4 28 -7 33 -7 10 -1 8 -16 -8 -51 -7 -16 -21 -61 -30 -100 -10 -38
-21 -74 -25 -80 -4 -5 -15 -45 -24 -87 -9 -42 -23 -82 -31 -88 -7 -6 -17 -24
-20 -40 -3 -15 -15 -36 -26 -46 -10 -9 -19 -26 -19 -36 0 -19 -70 -150 -96
-179 -8 -8 -14 -21 -14 -27 0 -7 -4 -12 -8 -12 -5 0 -16 -17 -26 -37 -20 -46
-40 -81 -55 -96 -8 -8 -11 3 -11 41 0 29 -5 52 -10 52 -6 0 -5 8 2 19 10 16 9
23 -4 38 -18 20 -22 87 -22 348 1 152 10 255 25 270 5 5 9 48 9 97 l0 88 33
-7 c17 -3 37 -12 42 -19z m3169 11 c11 -8 35 -15 53 -15 19 0 47 -7 62 -15 34
-17 81 -70 81 -91 0 -8 7 -14 15 -14 8 0 15 -7 15 -15 0 -9 11 -20 25 -25 14
-5 28 -17 32 -26 3 -9 28 -39 55 -65 53 -53 49 -57 -30 -34 -29 9 -57 13 -62
10 -6 -3 -10 1 -10 9 0 9 -8 16 -18 16 -17 0 -272 246 -280 270 -5 15 40 11
62 -5z m1150 0 c3 -8 21 -23 41 -32 20 -9 35 -24 35 -34 0 -10 11 -19 25 -23
14 -4 25 -13 25 -21 0 -8 6 -15 13 -15 6 0 26 -12 42 -28 17 -15 53 -45 80
-67 28 -22 52 -43 53 -47 2 -5 10 -8 18 -8 8 0 14 -7 14 -15 0 -9 9 -15 22
-15 22 0 58 -26 58 -43 0 -5 -6 -7 -13 -4 -18 7 -110 -13 -118 -24 -10 -17
-67 12 -94 47 -14 19 -33 34 -41 34 -7 0 -14 5 -14 10 0 6 -6 10 -13 10 -22 0
-285 246 -274 256 4 5 24 7 43 6 20 -2 33 1 30 7 -3 5 2 7 13 4 10 -3 22 0 25
6 10 15 23 14 30 -4z m-234 -36 c0 -8 4 -8 15 1 11 10 18 9 30 -3 8 -9 15 -20
15 -25 0 -13 86 -102 99 -102 6 0 11 -4 11 -9 0 -7 44 -52 135 -138 8 -7 18
-13 23 -13 5 0 17 -11 26 -25 9 -14 23 -25 30 -25 8 0 16 -7 20 -15 6 -16 -1
-18 -96 -15 -32 1 -58 -3 -58 -8 0 -6 -10 -6 -25 1 -14 7 -25 18 -25 25 0 6
-7 12 -15 12 -8 0 -15 9 -15 20 0 11 -6 20 -13 20 -7 0 -18 9 -24 19 -7 11
-22 21 -35 23 -12 2 -27 12 -33 24 -6 11 -35 41 -66 66 -109 89 -151 132 -144
151 5 13 11 14 25 7 11 -6 28 -7 42 -1 13 4 31 7 41 6 9 -2 17 1 17 6 0 5 5 9
10 9 6 0 10 -5 10 -11z m-555 -19 c34 0 93 -28 107 -50 7 -11 18 -20 25 -20 7
0 17 -9 23 -20 6 -11 16 -20 23 -20 7 0 22 -16 35 -35 12 -19 27 -35 32 -35 6
0 10 -9 10 -20 0 -11 6 -20 13 -20 12 0 127 -104 127 -114 0 -9 -51 -12 -56
-5 -3 5 -23 9 -45 9 -21 0 -39 4 -39 9 0 6 -8 10 -17 10 -57 0 -83 19 -228
165 l-150 151 55 5 c30 3 57 2 58 -2 2 -5 14 -8 27 -8z m355 -15 c0 -8 4 -15
9 -15 5 0 18 -16 29 -34 12 -19 37 -45 56 -58 20 -13 36 -28 36 -35 0 -16 74
-93 88 -93 7 0 12 -5 12 -11 0 -6 15 -25 33 -42 18 -18 38 -39 45 -49 12 -15
9 -15 -25 -6 -25 6 -62 31 -103 69 -36 33 -75 64 -87 69 -13 5 -23 16 -23 25
0 8 -7 15 -15 15 -8 0 -15 6 -15 14 0 8 -8 17 -17 20 -10 3 -45 31 -78 61 -33
30 -63 55 -67 55 -5 0 -8 7 -8 15 0 12 14 15 65 15 51 0 65 -3 65 -15z m-2880
-66 c0 -14 -26 -39 -42 -39 -7 -1 -31 -19 -53 -41 -40 -41 -111 -79 -145 -79
-10 0 -20 -6 -23 -13 -3 -7 -24 -19 -48 -26 -24 -7 -51 -17 -61 -21 -23 -13
-178 -32 -208 -26 -14 2 -31 5 -37 5 -8 1 -13 14 -13 32 0 16 4 28 8 25 13 -8
83 -9 132 -2 25 3 63 9 85 12 40 5 127 42 133 57 2 4 18 13 35 21 18 7 52 34
77 60 43 44 47 46 102 46 35 0 58 -4 58 -11z m388 -69 c20 -7 39 -16 42 -19 3
-3 19 -13 35 -21 27 -14 30 -21 31 -68 1 -29 7 -59 14 -67 6 -8 9 -19 5 -25
-4 -6 0 -19 8 -28 8 -9 17 -29 21 -44 16 -71 21 -84 43 -116 12 -19 23 -41 23
-48 0 -8 3 -14 8 -14 4 0 15 -21 25 -48 10 -26 23 -55 28 -64 5 -10 9 -27 9
-37 0 -11 4 -22 9 -25 15 -10 31 -65 20 -72 -5 -3 -9 -2 -8 3 4 21 -2 33 -16
33 -9 0 -18 7 -21 15 -4 8 -10 13 -14 10 -4 -3 -13 2 -20 10 -6 7 -19 11 -27
8 -10 -4 -14 -2 -10 4 4 6 -2 18 -13 28 -11 10 -20 15 -20 11 0 -4 -10 4 -22
17 -13 13 -33 27 -45 31 -13 4 -23 14 -23 22 0 8 -6 14 -14 14 -21 0 -46 45
-46 85 0 19 -4 43 -9 53 -9 15 -21 49 -20 55 0 1 -11 22 -24 47 -18 34 -29 45
-48 45 -19 0 -25 -6 -27 -28 -2 -16 1 -34 6 -40 12 -17 45 -107 40 -112 -2 -3
-21 11 -42 31 -21 20 -43 33 -51 31 -7 -3 -12 1 -11 11 0 9 -7 18 -17 20 -10
2 -37 23 -60 48 -34 36 -43 41 -56 31 -38 -31 26 57 92 125 20 22 37 46 37 54
0 8 7 14 15 14 9 0 20 11 25 24 7 19 17 25 47 28 21 2 39 -2 41 -8 1 -5 19
-16 40 -24z m243 -123 c4 -5 14 -7 24 -4 9 4 13 3 10 -3 -3 -5 5 -12 19 -16
13 -3 27 -12 30 -20 3 -8 12 -14 19 -14 23 0 67 -40 67 -61 0 -10 5 -19 10
-19 6 0 10 -5 10 -11 0 -6 14 -31 30 -56 17 -24 30 -48 30 -54 0 -5 6 -12 14
-15 7 -3 19 -24 26 -47 8 -23 19 -49 26 -57 7 -9 20 -32 29 -53 8 -20 20 -37
25 -37 6 0 10 -6 10 -13 0 -7 11 -29 25 -49 14 -20 25 -45 25 -54 0 -9 11 -32
25 -50 14 -18 25 -39 25 -48 0 -8 5 -18 10 -21 21 -13 60 -85 60 -110 0 -22
-3 -23 -24 -15 -13 5 -27 6 -31 2 -3 -3 -3 2 1 12 5 13 4 17 -4 12 -6 -3 -13
-2 -17 4 -3 5 -29 21 -57 35 -42 21 -53 23 -67 13 -14 -12 -14 -11 -2 4 11 15
11 19 -6 25 -38 15 -103 68 -103 84 0 9 -7 22 -15 29 -18 15 -45 68 -45 89 0
9 -16 45 -35 81 -19 35 -35 70 -35 77 0 7 -4 13 -9 13 -5 0 -14 12 -20 28 -6
15 -15 34 -20 42 -16 27 -61 125 -61 134 0 4 -11 21 -25 38 -14 16 -25 37 -25
45 0 9 -6 24 -13 32 -7 9 -18 28 -24 43 l-12 26 47 -15 c26 -9 50 -21 53 -26z
m3613 5 c3 -5 -1 -9 -9 -9 -8 0 -12 4 -9 9 3 4 7 8 9 8 2 0 6 -4 9 -8z m511
-66 c6 -6 23 -17 39 -24 19 -9 26 -16 18 -21 -6 -4 -13 -17 -15 -29 -2 -12 -9
-28 -15 -34 -7 -7 -12 -22 -12 -35 0 -13 -4 -23 -9 -23 -5 0 -11 -10 -14 -22
-4 -16 -9 -19 -19 -11 -7 5 -29 15 -48 23 -108 40 -110 41 -95 69 7 14 22 35
34 45 12 11 21 24 21 30 0 6 7 22 16 34 13 19 21 22 52 16 20 -3 42 -11 47
-18z m-430 -96 c3 -6 -1 -7 -9 -4 -18 7 -21 14 -7 14 6 0 13 -4 16 -10z
m-3365 -30 c0 -5 11 -10 25 -10 14 0 25 -4 25 -10 0 -5 9 -10 19 -10 10 0 21
-6 24 -13 3 -7 24 -19 47 -26 45 -13 80 -39 80 -58 0 -7 5 -13 10 -13 6 0 10
-6 10 -14 0 -8 9 -18 20 -21 11 -3 20 -12 20 -18 0 -7 11 -28 23 -47 24 -35
68 -111 94 -162 8 -16 19 -28 24 -28 5 0 9 -7 9 -16 0 -8 13 -29 30 -47 16
-18 30 -39 30 -48 0 -8 11 -30 25 -49 14 -19 25 -40 25 -47 0 -8 10 -24 23
-36 29 -30 57 -73 57 -89 0 -8 12 -25 28 -40 15 -14 32 -32 37 -39 29 -38 55
-78 55 -83 0 -8 -34 5 -45 18 -13 15 -86 37 -98 29 -6 -3 -7 -1 -4 5 4 6 -12
19 -38 32 -25 12 -47 26 -51 31 -3 5 -21 16 -41 24 -43 18 -82 60 -90 98 -3
15 -9 27 -14 27 -5 0 -9 6 -9 13 0 6 -14 30 -30 51 -17 22 -30 47 -30 56 0 9
-9 25 -20 35 -11 10 -20 28 -20 39 0 12 -9 32 -20 46 -11 14 -20 30 -20 36 0
7 -16 35 -35 63 -19 28 -35 57 -35 64 0 8 -9 26 -20 40 -11 14 -20 30 -20 36
0 5 -11 21 -24 34 -13 13 -27 33 -30 45 -4 11 -22 38 -41 59 -31 35 -36 53
-14 53 5 0 9 -4 9 -10z m3611 -58 c19 -19 50 -36 79 -45 23 -7 59 -79 43 -84
-7 -3 -13 -16 -13 -29 0 -29 -5 -30 -37 -4 -14 11 -33 20 -43 20 -10 0 -29 9
-43 20 -14 11 -33 20 -44 20 -10 0 -29 9 -42 19 l-24 18 24 32 c12 17 31 31
41 31 10 0 18 5 18 10 0 16 19 12 41 -8z m-363 -37 c-3 -3 -9 2 -12 12 -6 14
-5 15 5 6 7 -7 10 -15 7 -18z m-48 -30 c-10 -12 -10 -15 0 -15 8 0 11 -3 7 -6
-3 -3 -11 -3 -17 1 -8 5 -8 11 1 21 6 8 14 14 16 14 3 0 0 -7 -7 -15z m-4753
-10 c0 -8 -4 -12 -9 -9 -5 3 -6 10 -3 15 9 13 12 11 12 -6z m5048 -52 c22 -9
57 -33 77 -52 21 -19 47 -35 58 -36 23 -2 53 -25 32 -25 -7 0 -12 -6 -12 -13
0 -7 -11 -28 -25 -47 -14 -19 -25 -42 -25 -52 0 -26 -33 -23 -68 7 -17 14 -37
25 -46 25 -9 0 -16 8 -16 19 0 11 -11 24 -27 31 -70 29 -93 45 -93 62 0 10 5
17 12 16 6 -2 17 8 24 22 7 14 22 32 33 41 15 13 17 19 8 29 -10 10 -8 10 8 2
11 -6 38 -19 60 -29z m-3078 -22 c17 -7 37 -10 42 -6 7 4 8 0 4 -11 -4 -12 -3
-15 5 -10 7 4 12 3 12 -2 0 -6 16 -13 35 -16 19 -4 40 -12 47 -19 7 -7 25 -18
40 -26 16 -8 30 -25 33 -42 4 -16 13 -29 20 -29 8 0 17 -9 20 -20 3 -11 15
-24 25 -30 10 -5 32 -39 50 -75 17 -36 38 -65 45 -65 7 0 18 -12 23 -27 6 -16
22 -40 36 -55 14 -15 26 -31 26 -35 0 -4 12 -19 25 -32 14 -13 25 -28 25 -35
1 -14 46 -66 58 -66 5 0 15 -21 22 -46 9 -30 20 -49 32 -52 10 -2 18 -11 18
-20 0 -9 15 -31 32 -49 26 -27 30 -36 19 -43 -10 -5 -22 -3 -35 6 -11 8 -29
14 -39 14 -10 0 -31 9 -46 19 -14 11 -48 22 -74 26 -26 4 -47 12 -47 17 0 6
-16 32 -35 58 -19 26 -35 52 -35 58 0 6 -3 12 -7 14 -12 5 -43 64 -43 82 0 9
-4 16 -8 16 -13 0 -72 55 -72 67 0 9 -17 33 -79 115 -12 14 -21 33 -21 42 0 9
-7 16 -15 16 -8 0 -15 7 -15 15 0 8 -9 23 -21 33 -11 9 -27 33 -36 52 -9 19
-28 49 -42 66 -14 17 -33 40 -42 51 -9 11 -19 33 -23 49 -4 16 -3 24 1 18 4
-5 22 -16 40 -23z m2913 -116 c7 -8 19 -15 26 -15 8 0 14 -7 14 -15 0 -9 12
-20 27 -26 14 -5 43 -25 64 -44 20 -18 47 -38 58 -45 21 -11 30 -60 11 -60 -5
0 -10 -7 -10 -15 0 -8 -4 -15 -10 -15 -5 0 -10 -8 -10 -19 0 -29 -26 -46 -44
-29 -34 32 -57 48 -71 48 -8 0 -15 4 -15 9 0 5 -21 24 -47 41 -27 18 -52 39
-56 46 -4 8 -26 23 -48 34 -21 11 -39 24 -39 28 0 5 17 18 38 30 21 11 48 30
61 41 29 25 35 26 51 6z m821 -2 c13 -16 12 -17 -3 -4 -17 13 -22 21 -14 21 2
0 10 -8 17 -17z m-2996 -3 c-3 -5 -12 -10 -18 -10 -7 0 -6 4 3 10 19 12 23 12
15 0z m-351 -45 c2 -8 25 -17 50 -20 25 -4 46 -13 46 -19 0 -7 28 -20 63 -31
44 -13 72 -28 95 -53 17 -19 32 -38 32 -43 0 -4 6 -12 13 -16 12 -8 28 -33 55
-85 7 -16 18 -28 24 -28 19 0 48 -32 48 -52 0 -10 3 -18 8 -18 4 0 16 -16 26
-35 11 -19 22 -35 26 -35 5 0 11 -11 14 -25 4 -14 13 -25 21 -25 8 0 15 -4 15
-9 0 -4 23 -38 50 -75 28 -37 50 -71 50 -76 0 -6 7 -10 15 -10 9 0 20 -11 25
-25 5 -14 14 -25 20 -25 5 0 10 -5 10 -10 0 -7 -6 -7 -19 0 -11 5 -40 10 -65
10 -25 0 -48 4 -51 10 -3 5 -28 12 -55 16 -29 4 -50 12 -50 19 0 6 -24 38 -54
71 -30 32 -52 62 -50 66 3 4 1 8 -5 8 -5 0 -12 9 -16 20 -3 11 -35 50 -71 86
-35 36 -64 74 -64 83 0 9 -14 24 -30 33 -17 9 -30 23 -30 31 0 8 -9 22 -20 32
-11 10 -20 22 -20 27 0 5 -9 18 -20 30 -11 12 -20 30 -20 39 0 10 -3 19 -7 21
-19 8 -104 119 -98 127 7 13 32 4 39 -14z m1180 -3 c3 -5 -1 -9 -9 -9 -8 0
-12 4 -9 9 3 4 7 8 9 8 2 0 6 -4 9 -8z m1233 -117 c37 -36 74 -65 82 -65 9 0
40 -23 68 -51 45 -43 51 -54 43 -70 -6 -10 -17 -19 -25 -19 -8 0 -15 -4 -15
-9 0 -6 -11 -22 -24 -36 l-25 -27 -33 36 c-18 20 -39 36 -45 36 -7 0 -13 5
-13 10 0 6 -5 10 -10 10 -13 0 -122 88 -133 106 -4 8 -15 14 -23 14 -15 0 -53
37 -54 52 0 4 18 13 40 19 22 7 40 17 40 24 0 6 12 16 28 22 15 6 28 11 30 12
1 1 32 -28 69 -64z m-1316 18 c13 -16 12 -17 -3 -4 -10 7 -18 15 -18 17 0 8 8
3 21 -13z m984 -53 c3 -6 -1 -7 -9 -4 -18 7 -21 14 -7 14 6 0 13 -4 16 -10z
m-1605 -15 c14 0 28 -5 33 -12 4 -7 14 -10 22 -7 9 4 15 0 15 -7 0 -11 3 -11
10 1 7 11 10 11 10 2 0 -7 16 -28 35 -48 19 -19 35 -37 35 -40 0 -10 44 -43
58 -44 6 0 12 -7 12 -15 0 -9 24 -39 52 -68 54 -53 118 -139 118 -157 0 -5 6
-10 13 -10 8 0 19 -11 25 -25 6 -14 18 -25 27 -25 8 0 15 -7 15 -15 0 -8 5
-15 10 -15 6 0 10 -9 10 -21 0 -12 8 -23 20 -26 11 -3 20 -11 20 -17 0 -7 11
-22 25 -34 14 -12 25 -28 25 -36 0 -8 8 -17 18 -19 9 -3 -1 -5 -23 -6 -23 0
-46 4 -53 11 -7 7 -12 8 -12 4 0 -5 -7 -2 -16 5 -18 15 -20 15 -81 17 -24 1
-43 6 -43 11 0 5 -24 34 -52 63 -56 57 -75 82 -84 111 -4 9 -12 17 -20 17 -7
0 -19 10 -25 23 -11 20 -44 64 -84 110 -8 9 -15 22 -15 27 0 10 -9 22 -75 95
-16 18 -31 39 -33 47 -2 7 -11 22 -21 33 -10 11 -21 28 -24 38 -4 9 -13 17
-22 17 -8 0 -15 7 -15 15 0 11 7 13 33 8 17 -4 43 -7 57 -8z m1689 -32 c19
-15 55 -48 79 -74 24 -26 55 -50 68 -53 13 -4 24 -13 24 -21 0 -8 3 -15 8 -15
4 0 26 -18 50 -40 40 -38 41 -41 25 -58 -10 -10 -23 -27 -29 -38 -6 -10 -21
-24 -34 -31 -13 -6 -27 -19 -32 -27 -15 -27 -35 -18 -93 39 -30 30 -58 55 -61
55 -3 0 -42 36 -86 79 -45 44 -97 88 -115 98 -38 20 -41 29 -13 38 11 3 20 11
20 16 0 5 9 9 20 9 10 0 25 6 32 13 7 8 20 12 30 9 10 -2 18 1 18 7 0 5 7 8
15 5 8 -4 15 -1 15 5 0 18 21 13 59 -16z m-1268 -86 c4 -5 16 -7 28 -4 12 3
31 -3 45 -14 13 -10 29 -19 35 -19 6 0 11 -4 11 -9 0 -14 60 -101 69 -101 5 0
14 -13 20 -29 7 -15 47 -64 91 -108 43 -44 80 -89 82 -99 2 -10 16 -25 31 -32
16 -8 31 -21 34 -30 3 -10 21 -36 39 -58 45 -56 33 -66 -72 -58 -75 7 -81 9
-124 48 -46 41 -90 99 -90 116 0 6 -9 10 -20 10 -13 0 -20 7 -20 19 0 11 -15
35 -32 54 -40 42 -57 66 -64 90 -4 9 -13 17 -20 17 -8 0 -20 11 -26 25 -6 14
-22 32 -35 40 -12 9 -23 25 -23 37 0 12 -19 39 -45 64 -25 23 -45 47 -45 53 0
13 122 3 131 -12z m1042 -72 c100 -95 124 -115 160 -134 15 -8 27 -20 27 -28
0 -7 5 -13 10 -13 6 0 10 -9 10 -20 0 -12 7 -20 18 -20 20 -1 62 -33 62 -49 0
-6 -9 -11 -21 -11 -11 0 -41 -16 -65 -36 -44 -36 -45 -37 -66 -18 -12 11 -32
30 -43 44 -11 13 -31 34 -44 45 -53 44 -91 86 -91 100 0 8 -6 15 -13 15 -8 0
-19 11 -25 25 -6 14 -18 25 -25 25 -20 0 -77 54 -77 73 0 10 -7 17 -15 17 -8
0 -15 9 -15 19 0 15 10 20 51 26 36 5 49 11 45 21 -11 29 35 -3 117 -81z
m-728 38 c70 -5 114 -25 142 -64 7 -9 40 -45 73 -80 33 -35 63 -74 66 -86 4
-13 11 -23 18 -23 11 0 56 -43 56 -54 0 -12 35 -46 47 -46 18 0 155 -139 150
-153 -2 -7 -17 -13 -33 -13 -16 -1 -64 -4 -107 -8 -81 -6 -117 3 -117 29 0 8
-4 15 -10 15 -5 0 -10 4 -10 10 0 5 -23 34 -51 64 -28 31 -61 68 -73 84 -11
15 -42 50 -68 76 -27 27 -48 55 -48 62 0 7 -9 16 -20 19 -11 3 -20 12 -20 19
0 7 -12 27 -27 43 -58 64 -73 85 -73 105 0 15 4 18 18 13 9 -4 49 -9 87 -12z
m532 -124 c71 -71 134 -129 141 -129 6 0 12 -7 12 -15 0 -8 4 -15 9 -15 5 0
23 -19 40 -41 16 -23 40 -47 53 -53 38 -19 27 -39 -32 -60 -30 -11 -57 -22
-60 -25 -3 -3 -17 -12 -32 -20 -25 -13 -28 -12 -58 23 -18 20 -38 36 -46 36
-8 0 -14 7 -14 15 0 8 -30 45 -67 83 -89 89 -207 220 -212 235 -2 7 -17 24
-32 40 l-29 27 35 1 c35 1 53 4 58 9 7 8 53 6 58 -3 4 -5 10 0 13 11 4 13 13
19 21 15 8 -3 72 -63 142 -134z m-2077 -69 c0 -5 -2 -10 -4 -10 -3 0 -8 5 -11
10 -3 6 -1 10 4 10 6 0 11 -4 11 -10z m221 -67 c13 -16 12 -17 -3 -4 -10 7
-18 15 -18 17 0 8 8 3 21 -13z m-2264 -88 c0 -8 -4 -12 -9 -9 -5 3 -6 10 -3
15 9 13 12 11 12 -6z m1477 -73 c3 -5 -1 -9 -9 -9 -8 0 -12 4 -9 9 3 4 7 8 9
8 2 0 6 -4 9 -8z m-14 -58 c0 -8 -19 -13 -24 -6 -3 5 1 9 9 9 8 0 15 -2 15 -3z
m3404 -32 c3 -5 -1 -9 -9 -9 -8 0 -12 4 -9 9 3 4 7 8 9 8 2 0 6 -4 9 -8z
m-1760 -50 c3 -5 -1 -9 -9 -9 -8 0 -12 4 -9 9 3 4 7 8 9 8 2 0 6 -4 9 -8z
m131 -191 c3 -5 2 -12 -3 -15 -5 -3 -9 1 -9 9 0 17 3 19 12 6z m-1491 -139 c3
-5 -1 -9 -9 -9 -8 0 -12 4 -9 9 3 4 7 8 9 8 2 0 6 -4 9 -8z m2030 -160 c3 -5
-1 -9 -9 -9 -8 0 -12 4 -9 9 3 4 7 8 9 8 2 0 6 -4 9 -8z m-2296 -67 c-3 -3 -9
2 -12 12 -6 14 -5 15 5 6 7 -7 10 -15 7 -18z m1359 -90 c0 -8 -4 -12 -9 -9 -5
3 -6 10 -3 15 9 13 12 11 12 -6z m487 -33 c3 -5 -1 -9 -9 -9 -8 0 -12 4 -9 9
3 4 7 8 9 8 2 0 6 -4 9 -8z m146 -48 c0 -8 -19 -13 -24 -6 -3 5 1 9 9 9 8 0
15 -2 15 -3z m-609 -97 c-10 -9 -11 -8 -5 6 3 10 9 15 12 12 3 -3 0 -11 -7
-18z m52 -22 c-3 -9 -8 -14 -10 -11 -3 3 -2 9 2 15 9 16 15 13 8 -4z m-2739
-211 c3 -8 2 -12 -4 -9 -6 3 -10 10 -10 16 0 14 7 11 14 -7z m4012 -56 c4 -7
3 -8 -4 -4 -7 4 -12 2 -12 -5 0 -7 -3 -10 -6 -6 -6 5 3 27 11 27 2 0 7 -5 11
-12z m-3876 -3 c0 -7 -30 -13 -34 -7 -3 4 4 9 15 9 10 1 19 0 19 -2z m2045
-45 c3 -6 -1 -7 -9 -4 -18 7 -21 14 -7 14 6 0 13 -4 16 -10z"/>
<path d="M6505 12270 c-3 -5 -2 -10 4 -10 5 0 13 5 16 10 3 6 2 10 -4 10 -5 0
-13 -4 -16 -10z"/>
<path d="M7223 11700 c-51 -21 -130 -115 -178 -215 -61 -125 -72 -155 -80
-219 -4 -28 -12 -56 -17 -63 -5 -6 -12 -52 -15 -102 -6 -86 -5 -91 14 -91 11
0 37 20 59 46 21 26 48 56 59 68 30 33 93 167 120 256 9 30 23 69 31 87 8 17
14 39 14 48 0 9 6 31 14 48 8 18 17 46 21 62 18 85 18 85 -1 84 -11 0 -29 -4
-41 -9z"/>
<path d="M6250 11502 c-19 -15 -46 -40 -60 -57 -14 -16 -37 -43 -52 -59 -16
-17 -28 -36 -28 -43 0 -7 -3 -13 -7 -13 -5 0 -16 -21 -27 -48 -10 -26 -27 -67
-38 -92 -43 -93 -48 -107 -64 -170 -21 -80 -30 -230 -15 -230 6 0 11 -11 11
-24 0 -14 4 -28 10 -31 14 -9 80 25 80 41 0 8 6 14 14 14 8 0 18 9 21 20 3 11
13 20 21 20 8 0 14 7 14 16 0 9 10 30 23 47 32 46 77 137 77 158 0 17 6 36 36
105 7 17 18 73 24 125 5 52 15 104 22 117 9 17 9 25 0 34 -7 7 -12 29 -12 49
0 21 -4 40 -8 43 -4 2 -23 -7 -42 -22z"/>
<path d="M6594 11468 c-58 -62 -94 -112 -94 -131 0 -8 -8 -25 -18 -38 -10 -13
-24 -44 -32 -69 -8 -25 -18 -48 -23 -51 -4 -3 -12 -42 -16 -85 -10 -99 4 -206
30 -230 17 -16 20 -15 44 7 13 13 25 28 25 33 0 4 16 30 35 56 19 26 35 53 35
59 0 6 3 11 8 11 8 0 42 73 42 90 0 6 4 10 9 10 4 0 14 20 21 45 7 25 16 45
20 45 4 0 6 12 4 27 -1 15 2 34 8 41 7 8 11 49 10 99 -1 74 -4 89 -23 109 -12
13 -25 24 -29 24 -3 0 -28 -24 -56 -52z"/>
<path d="M7718 11840 c-34 -39 -70 -85 -78 -103 -9 -17 -21 -41 -27 -52 -22
-39 -61 -131 -73 -170 -7 -22 -17 -48 -22 -58 -5 -11 -7 -21 -5 -24 9 -8 76 9
88 23 6 8 19 14 28 14 16 1 82 84 91 117 6 20 38 90 51 113 23 38 31 70 36
138 8 94 -5 95 -89 2z"/>
<path d="M8530 11096 c-40 -17 -75 -58 -90 -103 -7 -24 -16 -43 -20 -43 -9 0
-27 -90 -36 -172 -13 -127 40 -163 116 -79 22 24 46 55 54 70 7 14 28 52 45
84 17 31 30 58 30 60 0 1 2 9 5 17 10 31 24 135 19 147 -10 25 -82 36 -123 19z"/>
<path d="M7260 9640 c0 -5 5 -10 10 -10 6 0 10 5 10 10 0 6 -4 10 -10 10 -5 0
-10 -4 -10 -10z"/>
<path d="M5853 9235 c-9 -26 6 -30 27 -7 l21 22 -21 0 c-11 0 -23 -7 -27 -15z"/>
<path d="M4880 7265 c-10 -19 -11 -28 -3 -36 9 -9 9 -16 0 -30 -14 -22 1 -73
23 -76 8 -2 25 6 38 17 22 18 22 21 11 84 -10 58 -14 66 -33 66 -14 0 -28 -10
-36 -25z"/>
<path d="M6622 7057 c-58 -18 -77 -96 -37 -151 27 -36 155 -34 155 3 0 10 9
26 19 35 19 18 19 18 0 52 -10 19 -19 40 -19 47 0 7 -8 13 -17 14 -10 1 -29 4
-43 6 -14 2 -40 -1 -58 -6z"/>
<path d="M6286 7019 c-19 -22 -25 -38 -20 -53 10 -32 19 -38 62 -40 31 0 44 5
65 29 33 38 34 58 2 79 -39 26 -79 20 -109 -15z"/>
<path d="M4869 6973 c-13 -34 -15 -137 -4 -178 4 -16 16 -39 26 -50 25 -28 61
-63 79 -79 19 -16 145 -76 161 -76 6 0 26 -8 43 -19 17 -10 58 -21 90 -25 33
-4 73 -13 90 -21 36 -16 89 -24 201 -32 44 -2 86 -9 92 -15 9 -7 13 -7 13 2 0
9 22 11 84 8 47 -3 89 -1 94 4 11 11 4 54 -12 66 -16 13 -129 30 -211 32 -38
0 -83 7 -99 15 -16 8 -54 15 -85 15 -31 1 -74 7 -96 15 -22 8 -52 15 -67 15
-16 0 -37 9 -48 20 -11 11 -29 20 -39 20 -11 0 -23 5 -26 10 -4 6 -10 8 -15 5
-4 -3 -10 2 -14 10 -3 8 -15 15 -27 15 -13 0 -31 7 -41 17 -10 9 -28 21 -40
27 -13 6 -25 20 -27 31 -2 11 -14 33 -26 50 -13 16 -26 49 -30 73 -4 23 -11
42 -16 42 -5 0 -9 7 -9 15 0 26 -30 16 -41 -12z"/>
<path d="M6463 6850 c-3 -11 -14 -20 -24 -20 -19 0 -24 -18 -19 -65 3 -27 4
-28 47 -21 31 6 42 14 60 45 20 35 21 40 7 60 -20 27 -64 28 -71 1z"/>
</g>
</svg>
