<?xml version="1.0" standalone="no"?>
<!DOCTYPE svg PUBLIC "-//W3C//DTD SVG 20010904//EN"
 "http://www.w3.org/TR/2001/REC-SVG-20010904/DTD/svg10.dtd">
<svg version="1.0" xmlns="http://www.w3.org/2000/svg"
 width="2732.000000pt" height="2048.000000pt" viewBox="0 0 2732.000000 2048.000000"
 preserveAspectRatio="xMidYMid meet">

<g transform="translate(0.000000,2048.000000) scale(0.100000,-0.100000)"
fill="#000000" stroke="none">
<path d="M11783 18990 c-29 -17 -128 -103 -219 -193 -155 -150 -238 -244 -402
-456 -35 -44 -76 -90 -92 -101 -27 -20 -52 -51 -262 -340 -239 -329 -514 -748
-675 -1030 -33 -58 -131 -224 -217 -370 -505 -848 -830 -1495 -1114 -2215 -39
-99 -150 -378 -245 -620 -260 -656 -357 -916 -504 -1350 -52 -154 -133 -386
-180 -515 -150 -414 -481 -1406 -599 -1794 -30 -99 -56 -181 -58 -184 -23 -22
-17 661 8 1073 20 311 53 734 71 905 8 74 17 171 20 215 6 78 16 168 55 485
10 85 26 220 35 300 23 202 114 834 130 900 7 30 23 120 35 200 21 147 39 247
90 490 59 283 82 382 95 414 7 17 28 106 45 196 39 205 89 409 141 582 47 157
48 206 4 264 -44 58 -71 64 -275 64 -170 0 -184 -1 -243 -25 -123 -50 -244
-213 -278 -373 -6 -31 -40 -160 -75 -287 -34 -126 -76 -289 -93 -361 -16 -72
-46 -185 -65 -250 -19 -65 -63 -227 -96 -359 -89 -344 -175 -647 -270 -940
-47 -145 -143 -482 -200 -700 -23 -88 -75 -277 -115 -420 -129 -456 -325
-1230 -389 -1540 -9 -44 -33 -150 -52 -235 -19 -85 -53 -244 -74 -353 -22
-109 -50 -237 -61 -285 -19 -81 -36 -159 -140 -657 -22 -104 -48 -242 -59
-305 -10 -63 -25 -149 -34 -190 -8 -41 -26 -140 -40 -220 -94 -520 -118 -638
-127 -609 -31 101 -50 1199 -30 1744 12 332 33 753 51 1030 49 748 87 1221
115 1435 9 69 30 222 45 340 16 118 33 256 39 305 14 123 107 743 125 830 20
96 64 328 75 395 4 30 32 172 60 315 29 143 65 328 81 410 16 83 38 193 50
245 11 52 33 163 49 245 44 223 151 688 220 956 128 500 124 637 -23 711 -16
9 -41 32 -55 53 -34 50 -111 97 -161 99 -30 0 -53 -9 -107 -46 -56 -39 -85
-70 -155 -165 -110 -152 -130 -189 -167 -299 -17 -51 -52 -150 -77 -220 -25
-71 -92 -313 -149 -539 -204 -802 -371 -1434 -448 -1691 -25 -82 -52 -176 -61
-209 -10 -33 -37 -127 -61 -210 -116 -400 -136 -469 -170 -595 -51 -189 -145
-473 -228 -685 -38 -99 -84 -223 -102 -275 -65 -189 -224 -608 -279 -738 -32
-74 -88 -215 -125 -315 -144 -381 -271 -669 -471 -1062 -92 -181 -157 -292
-263 -450 -155 -232 -217 -309 -288 -360 -67 -48 -111 -126 -106 -183 9 -84
74 -119 191 -103 79 11 149 42 259 114 45 29 105 66 132 82 207 117 475 435
677 800 143 259 325 620 362 719 13 34 62 147 108 251 47 105 91 207 97 227 7
21 17 41 23 44 12 8 5 -226 -12 -406 -5 -52 -16 -239 -24 -415 -8 -176 -22
-441 -31 -590 -28 -499 -37 -873 -40 -1655 -1 -496 47 -1926 69 -2062 3 -18
10 -89 16 -158 54 -694 150 -1354 271 -1870 90 -384 219 -893 251 -990 86
-263 155 -344 293 -344 75 -1 121 25 165 93 37 58 61 76 127 92 37 10 66 29
128 86 133 122 158 147 200 198 39 48 40 50 39 130 0 44 -5 143 -12 220 -25
288 -58 1641 -47 1970 4 127 9 289 11 360 4 158 20 447 34 610 6 66 17 212 25
325 9 113 22 279 30 370 8 91 19 221 25 290 5 69 19 190 29 270 11 80 29 237
41 350 12 113 38 293 60 400 21 107 59 308 86 445 46 247 73 336 60 205 -17
-177 -26 -863 -16 -1315 5 -264 12 -496 15 -515 3 -19 9 -116 15 -215 5 -99
14 -256 19 -350 6 -93 15 -264 21 -380 14 -277 28 -474 45 -675 8 -91 17 -201
20 -245 8 -103 18 -135 56 -171 29 -28 34 -29 122 -28 166 2 245 30 297 108
20 29 39 42 80 56 37 13 66 31 90 58 26 30 45 41 74 46 48 7 111 47 130 83 33
65 44 176 76 778 10 204 22 429 25 500 14 304 69 816 135 1245 10 69 29 188
40 265 67 438 244 1205 380 1645 21 69 68 235 105 370 37 135 102 355 145 490
44 135 116 362 160 505 218 699 606 1828 735 2140 140 336 187 448 230 545 26
58 64 146 85 195 179 431 538 1197 686 1467 129 233 245 465 274 543 14 39 35
84 47 100 11 17 59 100 105 185 95 172 267 458 468 775 73 115 160 259 195
320 63 113 256 420 334 534 44 65 60 68 61 12 0 -80 141 -393 276 -616 91
-149 309 -352 459 -425 l79 -39 -114 -54 c-182 -86 -302 -123 -493 -150 -92
-13 -173 -29 -179 -35 -16 -16 -22 -142 -9 -202 35 -164 163 -316 341 -405 74
-37 181 -75 210 -75 28 0 25 -6 -16 -42 -39 -35 -64 -76 -64 -108 0 -35 114
-140 202 -185 92 -48 98 -44 -126 -85 -154 -29 -162 -32 -193 -64 -73 -79 -46
-185 76 -303 98 -94 230 -185 366 -253 110 -54 286 -120 321 -120 34 0 7 -19
-103 -73 -166 -80 -352 -159 -468 -200 -55 -19 -137 -49 -182 -66 -92 -36 -97
-43 -109 -161 -6 -54 -5 -56 33 -92 50 -49 117 -62 268 -55 313 16 570 131
780 349 107 110 179 210 268 373 69 126 88 159 109 187 10 15 10 21 -4 34 -15
15 -20 15 -69 -2 -65 -22 -159 -22 -294 1 -92 16 -158 37 -335 108 -84 33
-231 116 -237 133 -2 5 27 23 64 41 69 32 218 162 243 211 17 34 -9 67 -67 86
-65 22 -214 121 -213 142 1 5 30 27 65 49 117 72 235 201 235 256 0 39 -24 49
-113 49 -188 0 -398 97 -594 274 -57 51 -64 66 -34 66 35 0 325 77 396 105 92
37 247 125 318 182 95 75 90 122 -17 188 -158 96 -272 232 -393 470 -81 160
-116 250 -153 396 -78 309 -110 506 -117 723 -6 170 -5 183 17 246 22 63 22
67 6 102 -31 66 -108 77 -193 28z"/>
<path d="M13723 17849 c-36 -23 -48 -55 -102 -274 -16 -66 -67 -241 -114 -390
-47 -148 -102 -328 -121 -400 -44 -160 -141 -450 -190 -568 -50 -121 -94 -207
-174 -340 -83 -137 -84 -140 -66 -166 42 -60 114 1 290 248 162 226 253 387
355 627 45 107 86 194 90 194 4 0 10 -16 14 -36 3 -20 35 -93 70 -163 49 -96
83 -147 144 -217 126 -144 289 -257 454 -315 43 -15 75 -29 70 -32 -77 -44
-464 -41 -520 5 -6 5 -24 8 -40 6 -23 -2 -34 -14 -60 -67 -40 -77 -40 -92 -8
-196 43 -143 177 -303 349 -421 83 -56 83 -56 90 -107 3 -29 6 -92 6 -140 0
-58 5 -98 15 -116 35 -69 217 -190 355 -237 226 -76 456 -50 623 70 68 49 111
105 101 131 -3 8 -37 15 -92 19 -269 22 -510 99 -661 212 l-51 38 59 21 c66
24 135 63 179 100 28 24 92 110 92 125 0 24 -36 43 -122 64 -112 28 -268 105
-340 167 -27 22 -48 44 -48 48 0 4 26 15 58 25 134 42 355 180 472 296 78 77
140 158 140 182 0 10 -29 17 -110 25 -86 8 -123 17 -174 41 -200 94 -418 303
-554 532 -92 156 -216 466 -271 683 -16 62 -39 138 -50 169 -12 32 -21 71 -21
89 0 37 -47 89 -82 89 -13 0 -38 -10 -55 -21z"/>
<path d="M16869 17610 c-9 -5 -38 -14 -65 -20 -62 -14 -200 -68 -238 -94 -87
-59 -235 -382 -337 -739 -28 -99 -118 -530 -139 -672 -6 -38 -22 -128 -35
-200 -13 -71 -52 -301 -85 -510 -34 -209 -72 -436 -85 -505 -12 -69 -33 -191
-46 -273 -13 -81 -26 -152 -29 -157 -4 -7 -27 -6 -66 1 -81 16 -399 5 -484
-16 -163 -40 -400 -185 -568 -348 -318 -309 -557 -659 -741 -1082 l-22 -50
-53 100 c-128 243 -261 412 -381 484 -82 50 -204 80 -375 92 -262 20 -373 -1
-506 -97 -92 -65 -300 -268 -383 -374 -93 -118 -257 -356 -326 -473 l-58 -98
-46 88 c-64 124 -107 179 -196 248 -161 127 -249 166 -545 243 -170 44 -180
45 -330 46 -151 1 -157 0 -230 -30 -116 -47 -203 -109 -367 -263 -83 -78 -162
-150 -176 -161 -38 -30 -296 -341 -390 -472 -34 -46 -89 -120 -122 -164 -34
-44 -83 -118 -110 -165 -27 -46 -65 -109 -86 -139 -93 -140 -284 -573 -379
-860 -101 -303 -195 -734 -241 -1095 -17 -134 -18 -623 -1 -742 40 -293 174
-567 380 -780 70 -71 87 -83 185 -126 227 -99 325 -117 529 -98 120 11 322 60
476 115 83 30 277 137 337 186 33 27 150 119 260 204 110 86 225 178 256 206
31 27 61 50 65 50 5 0 31 -45 58 -100 63 -130 100 -167 209 -213 165 -69 285
-81 475 -48 235 41 471 177 689 397 124 125 288 328 386 477 136 205 371 647
477 897 59 137 100 210 120 210 10 0 27 -104 35 -220 13 -180 87 -478 146
-591 96 -179 313 -293 559 -292 116 1 173 13 266 59 91 45 258 178 352 280 96
104 229 294 293 419 78 152 230 415 240 415 5 0 9 -25 9 -55 0 -29 7 -80 15
-112 9 -33 15 -101 15 -160 0 -117 26 -441 40 -493 28 -107 111 -175 233 -192
89 -13 128 -3 221 53 37 22 91 49 120 59 82 28 128 55 175 104 24 25 57 48 71
51 32 7 64 39 79 79 8 18 13 211 16 545 9 913 29 1287 106 2046 32 320 34 325
42 105 8 -226 20 -358 47 -522 68 -401 249 -774 464 -959 97 -84 190 -127 313
-146 88 -13 107 -13 188 1 50 9 122 21 160 27 158 23 401 127 535 228 84 63
298 283 376 386 153 201 380 576 570 942 49 95 91 173 94 173 3 0 5 -134 5
-298 1 -279 2 -307 28 -455 31 -174 50 -248 96 -382 53 -151 85 -169 296 -163
121 3 134 5 195 34 78 37 164 104 184 142 17 33 36 114 106 457 121 590 383
1587 505 1920 20 55 64 178 96 273 33 96 71 199 85 230 14 31 56 134 94 227
109 274 152 347 119 202 -10 -45 -19 -105 -19 -134 0 -28 -6 -80 -14 -115 -31
-134 -132 -868 -155 -1128 -39 -425 -40 -1313 -2 -1688 54 -543 117 -881 240
-1297 164 -555 375 -1027 596 -1334 81 -112 225 -279 326 -378 257 -250 507
-405 789 -489 172 -51 484 -70 635 -39 289 60 672 249 940 464 109 87 300 276
385 382 94 117 166 232 258 414 118 233 167 417 182 684 10 168 4 203 -41 235
-43 29 -75 22 -277 -61 -69 -28 -188 -116 -217 -159 -9 -15 -35 -95 -56 -178
-142 -548 -264 -770 -558 -1024 -130 -112 -118 -107 -245 -104 -225 6 -444 83
-707 247 -258 162 -414 307 -591 550 -64 88 -142 203 -173 255 -70 114 -220
420 -306 620 -95 223 -243 682 -279 869 -11 53 -31 150 -45 216 -55 255 -108
725 -135 1204 -19 346 -10 898 21 1256 18 220 60 599 75 680 7 44 23 134 35
200 18 105 81 375 107 460 6 17 20 53 32 80 25 57 121 309 140 370 7 22 28 70
48 107 41 79 39 118 -8 163 -29 28 -36 29 -165 38 -116 8 -141 7 -178 -7 -112
-43 -424 -374 -752 -801 -254 -330 -364 -478 -465 -628 -40 -59 -74 -107 -76
-105 -2 2 12 71 31 153 53 228 101 443 141 625 31 147 63 250 160 521 l27 77
-19 38 c-32 64 -56 75 -197 87 -108 8 -138 7 -214 -8 -97 -19 -129 -32 -188
-79 -22 -17 -58 -43 -80 -57 -110 -72 -125 -93 -274 -388 -200 -395 -378 -784
-494 -1076 -34 -86 -89 -212 -235 -535 -35 -80 -95 -212 -132 -295 -37 -82
-86 -190 -109 -240 -24 -49 -76 -166 -118 -260 -41 -93 -98 -222 -128 -285
-29 -63 -73 -162 -98 -220 -24 -58 -74 -168 -110 -245 -35 -77 -80 -174 -99
-215 -138 -300 -381 -643 -505 -713 l-32 -18 -24 48 c-73 143 -143 384 -182
623 -30 183 -53 486 -38 501 6 6 44 15 84 20 227 31 507 172 734 369 94 82
338 343 416 446 104 138 293 483 359 658 120 317 152 677 81 907 -58 184 -227
324 -491 403 -179 54 -303 59 -490 20 -141 -29 -242 -73 -400 -174 -126 -81
-195 -138 -317 -262 -288 -293 -483 -597 -667 -1040 -60 -145 -184 -506 -201
-588 -17 -78 -15 1 5 182 31 289 48 454 55 543 4 44 22 211 41 370 19 160 41
360 49 447 8 86 31 263 49 395 19 131 40 285 46 343 6 58 17 139 25 180 8 41
44 266 80 500 53 346 71 444 99 525 56 164 80 350 56 436 -11 40 -89 122 -142
151 -36 19 -123 23 -149 8z m1388 -2587 c19 -92 -1 -462 -37 -673 -43 -252
-86 -388 -175 -558 -83 -156 -128 -217 -248 -335 -160 -158 -193 -176 -250
-135 -16 12 -16 21 -7 93 22 158 100 471 195 780 40 130 156 397 222 510 72
124 256 355 284 355 4 0 12 -17 16 -37z m-2781 -1192 c86 -108 164 -419 164
-651 0 -231 -46 -489 -125 -694 -29 -78 -90 -240 -135 -361 -131 -353 -272
-681 -528 -1230 -132 -283 -313 -598 -332 -579 -5 5 -19 80 -30 167 -53 417 5
1271 120 1752 55 232 79 322 110 407 17 45 55 154 85 240 30 87 71 190 91 230
20 40 51 107 69 148 73 170 259 485 365 618 l42 52 30 -21 c16 -12 50 -47 74
-78z m-2568 -988 c119 -281 120 -987 2 -1548 -120 -566 -484 -1429 -755 -1790
-31 -41 -61 -75 -65 -75 -42 0 -31 682 16 1025 36 266 130 742 191 975 83 317
224 712 362 1017 28 62 51 115 51 119 0 19 155 324 165 324 7 0 22 -21 33 -47z
m-2307 -498 c62 -114 110 -324 141 -615 18 -168 18 -828 0 -1010 -62 -641 -84
-757 -228 -1199 -64 -196 -91 -263 -173 -425 -113 -222 -151 -283 -216 -348
-58 -59 -81 -61 -155 -12 -98 64 -158 123 -237 232 l-77 107 2 210 c3 368 52
727 166 1225 142 619 323 1170 510 1555 74 152 203 357 221 352 5 -2 26 -34
46 -72z"/>
<path d="M4433 14014 c-31 -36 -113 -273 -303 -874 -33 -107 -92 -287 -131
-400 -39 -113 -92 -275 -119 -360 -28 -85 -73 -218 -101 -295 -28 -77 -70
-196 -94 -265 -69 -201 -202 -567 -244 -670 -42 -103 -42 -125 2 -150 24 -13
28 -13 53 10 31 29 125 213 191 373 144 350 410 1087 527 1464 36 114 79 249
96 298 28 83 94 322 175 635 40 155 51 236 35 256 -21 24 -54 16 -87 -22z"/>
<path d="M22103 11915 c-28 -27 -29 -52 -8 -230 36 -319 66 -476 132 -710 153
-542 501 -1141 806 -1386 55 -44 109 -52 145 -21 49 42 32 80 -98 227 -74 83
-210 281 -293 426 -192 333 -289 520 -386 747 -129 302 -225 643 -257 915 -3
31 -9 57 -13 56 -3 -1 -16 -11 -28 -24z"/>
<path d="M3285 10667 c-11 -6 -32 -16 -47 -22 -18 -7 -56 -55 -123 -155 -140
-209 -253 -342 -541 -639 -152 -157 -165 -174 -162 -203 3 -33 18 -45 84 -65
43 -14 66 -2 181 93 234 195 434 443 618 767 74 130 89 185 60 217 -21 23 -41
25 -70 7z"/>
<path d="M19995 10591 c-27 -5 -104 -14 -170 -21 -140 -14 -451 -64 -545 -87
-222 -54 -446 -127 -805 -261 -277 -104 -411 -153 -510 -189 -77 -27 -97 -35
-325 -130 -85 -35 -200 -81 -255 -103 -97 -37 -150 -59 -340 -140 -49 -21
-133 -56 -185 -78 -52 -22 -113 -49 -135 -60 -22 -11 -110 -50 -195 -87 -85
-37 -202 -88 -260 -115 -58 -27 -168 -76 -245 -110 -77 -34 -189 -85 -250
-112 -60 -28 -177 -79 -260 -113 -82 -35 -256 -111 -385 -170 -631 -287 -799
-362 -1110 -492 -380 -160 -985 -400 -1165 -463 -231 -80 -501 -172 -600 -205
-282 -93 -953 -296 -1140 -345 -66 -17 -174 -46 -240 -65 -225 -61 -320 -85
-408 -99 -48 -8 -91 -17 -96 -20 -18 -11 -852 -145 -941 -151 -52 -3 -120 -9
-150 -12 -30 -2 -170 -5 -310 -4 -238 0 -392 8 -584 31 -44 6 -105 10 -136 10
-47 0 -77 9 -161 46 -127 57 -170 65 -195 35 -10 -12 -26 -21 -35 -21 -27 0
-42 -26 -35 -64 10 -55 120 -145 196 -161 19 -4 68 -18 108 -31 85 -27 213
-51 327 -59 395 -28 703 -24 1083 15 229 24 882 140 1082 193 321 84 385 102
630 169 280 77 547 160 761 239 119 43 313 112 430 153 118 41 320 113 449
160 129 48 339 124 465 170 127 46 320 120 430 164 110 44 319 128 465 185
146 58 303 122 350 142 47 21 137 59 200 85 189 79 320 135 415 178 50 22 133
58 185 80 52 22 185 81 295 132 344 157 387 177 487 219 53 22 166 73 250 112
237 111 526 238 758 334 135 56 298 122 465 190 185 75 310 128 520 220 66 29
194 80 285 113 91 34 215 80 275 102 313 118 605 202 815 235 58 9 170 28 250
42 115 20 191 26 370 30 l225 5 120 -32 c162 -42 183 -43 218 -9 32 32 34 50
9 72 -43 39 -229 103 -377 131 -100 18 -304 28 -370 17z"/>
<path d="M20215 10173 c-44 -14 -92 -34 -107 -44 -14 -11 -30 -19 -35 -19 -20
0 -139 -139 -151 -176 -50 -151 -55 -178 -49 -274 4 -86 25 -165 46 -180 4 -3
10 -12 13 -21 4 -9 21 -23 40 -32 38 -18 55 -21 243 -43 28 -3 60 -7 73 -8 41
-6 47 -22 51 -142 3 -109 2 -117 -25 -170 -33 -64 -62 -88 -129 -105 -42 -11
-52 -10 -81 6 -38 20 -44 33 -47 103 -1 27 -6 48 -12 46 -5 -2 -49 -15 -97
-29 l-88 -26 0 -65 c0 -64 31 -164 51 -164 4 0 10 -9 14 -19 5 -18 59 -51 95
-58 77 -17 223 11 265 50 11 10 32 25 46 33 40 20 127 122 155 181 40 84 57
183 51 308 -5 121 -23 181 -70 224 -26 23 -124 54 -162 51 -66 -7 -164 1 -171
12 -3 5 -9 6 -14 3 -5 -3 -18 7 -29 21 -17 22 -21 41 -21 109 0 49 6 96 14
116 18 43 70 99 90 99 9 0 16 4 16 8 0 5 24 9 53 9 71 1 90 -20 95 -103 l4
-61 96 28 c52 16 97 29 99 29 11 0 1 156 -13 188 -49 119 -162 161 -309 115z"/>
<path d="M19610 10021 l-85 -27 -3 -691 -2 -692 47 15 c27 8 72 21 101 30 l52
15 0 690 c0 545 -3 689 -12 688 -7 0 -51 -13 -98 -28z"/>
<path d="M18979 9874 c-90 -28 -128 -53 -212 -138 -42 -43 -70 -92 -98 -175
-17 -50 -19 -90 -19 -495 0 -509 -1 -499 82 -556 28 -19 55 -36 59 -36 5 -1
10 -3 12 -4 4 -5 52 -10 95 -10 47 -1 152 29 152 42 0 4 5 8 12 8 24 0 157
111 158 132 0 4 14 27 31 51 17 25 36 66 43 93 14 60 14 931 0 984 -14 57 -46
89 -105 106 -78 23 -132 23 -210 -2z m78 -189 c51 -11 53 -32 53 -473 0 -340
-3 -415 -15 -443 -19 -43 -39 -69 -54 -69 -6 0 -11 -4 -11 -9 0 -8 -49 -22
-95 -27 -11 -1 -26 3 -34 10 -8 6 -17 10 -20 8 -3 -2 -11 14 -18 35 -16 52
-17 761 -2 834 12 57 65 119 100 119 11 0 19 3 19 8 0 9 47 13 77 7z"/>
<path d="M18178 9573 c-10 -3 -18 -8 -18 -12 0 -4 -74 -30 -165 -57 l-165 -49
0 -692 c0 -550 3 -691 13 -688 6 3 79 25 161 50 82 25 157 51 165 59 9 7 34
22 56 32 22 10 45 23 51 29 6 5 27 23 47 39 99 79 147 214 147 411 -1 87 -5
124 -23 175 -20 60 -25 66 -63 80 l-42 15 48 53 c38 42 50 65 63 121 23 92 22
210 -2 293 -20 71 -37 92 -93 122 -34 17 -139 28 -180 19z m73 -220 c21 -24
24 -40 27 -118 3 -83 1 -94 -25 -145 -16 -30 -39 -60 -51 -66 -12 -6 -30 -18
-39 -26 -14 -12 -111 -48 -130 -48 -2 0 -3 87 -3 194 l0 194 28 7 c15 4 43 9
62 11 19 2 36 8 38 14 2 5 18 10 36 10 23 0 40 -8 57 -27z m-7 -551 c32 -27
39 -68 34 -195 -3 -87 -7 -108 -28 -142 -27 -44 -45 -65 -56 -65 -4 0 -15 -7
-25 -16 -9 -8 -44 -24 -78 -34 l-61 -18 0 223 0 223 34 12 c19 6 45 12 58 12
13 1 32 7 42 15 25 16 50 12 80 -15z"/>
<path d="M23910 9484 c-83 -27 -231 -45 -360 -44 -119 2 -118 2 -124 -18 -3
-9 2 -40 12 -67 14 -40 28 -57 66 -83 107 -71 296 -98 411 -57 143 50 244 204
181 274 -26 29 -90 27 -186 -5z"/>
<path d="M17195 9191 l-90 -27 -5 -425 -5 -424 -72 170 c-40 94 -73 178 -73
188 0 9 -4 25 -10 35 -5 9 -19 40 -30 67 -12 28 -25 59 -30 70 -5 11 -18 43
-30 70 -12 28 -25 59 -30 70 -5 11 -14 32 -19 47 -9 24 -14 26 -34 19 -12 -5
-55 -19 -95 -30 l-72 -22 0 -689 c0 -380 3 -690 8 -690 4 0 48 13 97 28 l90
28 5 414 5 415 29 -70 c26 -62 58 -133 102 -232 8 -17 14 -38 14 -47 0 -12 30
-89 80 -201 5 -11 18 -42 30 -70 47 -112 37 -108 163 -69 l77 25 0 689 c0 380
-3 690 -7 689 -5 0 -48 -13 -98 -28z"/>
<path d="M16107 8738 c-31 -9 -72 -29 -91 -43 -18 -14 -36 -25 -40 -25 -4 0
-14 -7 -22 -15 -8 -8 -23 -20 -32 -27 -25 -18 -84 -97 -104 -138 -48 -96 -48
-98 -48 -565 0 -525 -7 -488 107 -584 38 -32 122 -39 195 -16 69 21 128 48
128 58 0 4 5 7 10 7 14 0 33 16 79 62 57 58 82 95 110 161 l26 62 3 444 c3
507 4 502 -78 582 -26 25 -53 46 -61 47 -105 8 -130 6 -182 -10z m105 -221
c16 -20 18 -59 18 -439 0 -307 -3 -424 -12 -445 -13 -30 -53 -73 -69 -73 -5 0
-9 -4 -9 -10 0 -9 -65 -26 -87 -22 -7 2 -13 -2 -13 -9 0 -8 -4 -8 -15 1 -8 7
-15 9 -15 4 0 -4 -10 3 -22 16 l-23 25 0 410 c0 225 3 422 8 438 10 37 80 109
120 124 44 16 98 7 119 -20z"/>
<path d="M15545 8458 c-16 -6 -32 -14 -35 -17 -3 -4 -31 -15 -62 -24 l-58 -18
0 -690 c0 -379 1 -689 3 -689 13 0 113 34 117 39 3 4 21 12 40 17 l35 10 3
692 c1 381 -1 692 -5 691 -5 0 -21 -5 -38 -11z"/>
<path d="M19995 8441 c-27 -5 -104 -14 -170 -21 -170 -17 -460 -66 -595 -100
-224 -56 -427 -124 -880 -295 -144 -54 -285 -106 -385 -141 -38 -14 -122 -48
-187 -75 -64 -27 -118 -49 -121 -49 -3 0 -63 -24 -134 -54 -70 -29 -166 -68
-213 -86 -112 -43 -489 -203 -565 -239 -33 -16 -130 -59 -215 -96 -85 -36
-202 -88 -260 -115 -58 -27 -168 -76 -245 -110 -77 -34 -208 -93 -292 -131
-83 -38 -154 -69 -157 -69 -12 0 -220 -93 -876 -390 -571 -259 -1480 -633
-1845 -760 -449 -155 -646 -221 -830 -278 -445 -138 -761 -233 -910 -272 -66
-17 -174 -46 -240 -65 -225 -61 -320 -85 -408 -99 -48 -8 -91 -17 -96 -20 -18
-12 -851 -145 -941 -151 -52 -3 -120 -9 -150 -12 -116 -11 -578 -3 -740 12
-91 9 -205 19 -255 22 -89 5 -176 32 -275 84 -46 25 -95 24 -117 -1 -10 -11
-25 -20 -33 -20 -22 0 -40 -20 -40 -46 0 -52 109 -155 185 -174 22 -6 76 -22
120 -35 148 -46 237 -57 610 -75 222 -11 514 0 803 30 229 24 882 140 1082
193 321 84 385 102 630 169 280 77 547 160 761 239 119 43 313 112 430 153
118 41 320 113 449 161 129 47 339 124 465 169 127 46 320 120 430 164 110 44
243 97 295 117 52 20 120 47 150 60 30 13 107 44 170 68 63 25 153 62 200 82
47 21 137 59 200 85 204 85 323 136 428 184 56 25 104 46 107 46 6 0 238 104
490 220 110 50 257 116 327 146 70 30 196 86 280 125 237 111 526 238 758 334
134 55 298 122 465 190 99 40 248 102 330 138 307 132 364 155 520 212 88 32
201 74 250 93 278 106 589 195 795 227 58 9 170 28 250 42 115 20 191 26 370
30 l225 5 120 -32 c162 -42 183 -43 218 -9 32 32 34 50 9 72 -43 39 -229 103
-377 131 -100 18 -304 28 -370 17z"/>
<path d="M15135 8263 c-82 -25 -152 -49 -155 -53 -4 -6 -203 -70 -317 -102
l-33 -9 0 -89 c0 -50 1 -90 3 -90 1 0 52 16 112 34 l110 34 3 -599 c1 -330 5
-599 10 -599 14 0 100 29 118 39 11 6 31 15 47 21 l27 10 0 594 c0 463 3 596
13 604 6 5 58 24 115 41 l102 32 0 89 c0 50 -1 90 -2 89 -2 0 -70 -21 -153
-46z"/>
<path d="M12215 8055 c-194 -95 -343 -158 -465 -195 -372 -116 -350 -106 -350
-149 0 -32 16 -51 44 -51 59 0 440 118 616 191 292 121 335 143 338 171 3 23
-3 30 -37 47 -52 27 -63 26 -146 -14z"/>
<path d="M20230 7999 c-100 -8 -276 -31 -480 -64 -241 -38 -939 -261 -1245
-397 -55 -25 -122 -53 -150 -63 -94 -35 -350 -142 -518 -219 -92 -42 -171 -76
-175 -76 -4 0 -20 -10 -36 -23 -23 -18 -27 -28 -21 -46 12 -39 96 -26 230 37
61 28 171 76 245 106 74 30 203 82 285 116 83 33 222 86 310 117 88 30 257 89
375 130 321 112 819 236 1093 273 123 16 239 12 339 -11 103 -24 138 -20 138
15 0 56 -26 76 -120 94 -89 17 -158 20 -270 11z"/>
<path d="M14258 7925 c-79 -25 -149 -68 -207 -127 -50 -51 -62 -72 -90 -157
-20 -62 -21 -84 -21 -516 0 -430 4 -504 29 -525 4 -3 12 -17 18 -31 43 -98
317 -75 418 35 123 135 175 249 175 386 l0 48 -61 -18 c-33 -10 -66 -23 -72
-28 -7 -5 -24 -12 -38 -15 -25 -6 -27 -11 -31 -80 -4 -61 -10 -81 -32 -110
-37 -48 -106 -81 -150 -73 -59 11 -61 23 -61 466 0 492 4 511 112 542 45 14
55 14 82 1 34 -17 51 -56 51 -121 l0 -44 32 6 c18 3 34 10 38 15 3 4 32 17 65
27 l60 19 -2 83 c-1 63 -7 93 -23 125 -24 46 -93 113 -98 97 -3 -7 -10 -6 -20
2 -8 7 -17 12 -19 11 -1 -2 -4 -3 -5 -2 -21 9 -98 1 -150 -16z"/>
<path d="M13643 7608 l-93 -29 0 -566 c0 -516 -1 -567 -17 -594 -10 -16 -21
-29 -24 -29 -4 0 -14 -6 -22 -14 -17 -17 -105 -44 -128 -39 -36 8 -39 54 -39
615 l0 546 -97 -29 c-53 -16 -98 -29 -100 -29 -2 0 -3 -264 -1 -587 l3 -588
23 -37 c20 -31 80 -80 105 -84 4 -1 8 -2 10 -4 18 -15 110 -17 132 -3 11 7 26
13 34 13 8 0 37 11 65 24 88 42 192 154 237 256 l24 55 3 578 c2 466 0 577
-10 576 -7 -1 -55 -14 -105 -31z"/>
<path d="M7984 7590 c-72 -27 -9 -121 122 -182 62 -29 90 -36 354 -83 174 -32
472 -50 675 -41 674 28 1089 76 1495 171 108 26 246 71 268 88 17 13 15 44 -4
51 -26 10 -90 7 -166 -9 -319 -65 -439 -83 -808 -116 -336 -30 -1133 -44
-1345 -23 -316 30 -401 49 -496 112 -56 37 -69 41 -95 32z"/>
<path d="M12517 7214 c-92 -29 -184 -60 -202 -69 l-35 -16 0 -690 0 -690 23 7
c12 4 24 10 27 14 3 4 40 17 83 30 l77 23 0 293 0 292 47 16 c26 9 52 16 58
16 6 0 33 -66 59 -147 27 -82 67 -200 90 -264 l40 -116 36 11 c19 5 37 13 40
17 3 4 32 15 65 25 33 10 62 19 64 21 2 1 -15 48 -37 105 -22 57 -42 118 -46
136 -3 18 -17 56 -30 85 -13 28 -41 92 -61 142 l-37 90 29 25 c103 89 163 302
134 476 -23 133 -39 164 -103 193 -82 37 -133 33 -321 -25z m185 -158 c54 -24
66 -243 18 -339 -14 -29 -34 -52 -52 -59 -15 -7 -28 -16 -28 -19 0 -4 -28 -14
-62 -24 -34 -9 -68 -19 -75 -22 -10 -4 -13 38 -13 214 l0 220 42 12 c23 7 57
14 75 16 19 2 36 5 39 7 5 6 35 2 56 -6z"/>
<path d="M12000 7047 c-107 -33 -197 -63 -200 -67 -3 -4 -62 -24 -132 -45
l-128 -39 0 -88 c0 -48 3 -88 8 -88 4 0 55 16 115 34 l107 34 0 -599 c0 -515
2 -599 14 -599 8 0 17 4 20 9 3 4 41 18 86 31 l80 23 0 597 c0 466 3 600 13
607 6 5 55 22 107 38 52 15 99 31 103 35 4 4 7 45 5 91 l-3 85 -195 -59z"/>
<path d="M17130 6929 c-85 -39 -161 -73 -168 -76 -18 -8 -26 -51 -12 -68 21
-25 54 -17 187 43 70 32 143 64 161 71 43 18 54 57 22 83 -12 10 -25 18 -29
18 -3 0 -76 -32 -161 -71z"/>
<path d="M11250 6823 c-58 -10 -167 -47 -192 -64 -14 -11 -29 -19 -32 -19 -4
0 -31 -26 -61 -57 -106 -111 -150 -234 -142 -393 5 -104 24 -160 64 -198 22
-20 55 -38 73 -40 3 0 17 -5 33 -11 15 -6 69 -13 119 -17 51 -3 98 -10 104
-15 6 -5 13 -7 15 -5 2 3 15 -4 29 -14 23 -18 25 -26 28 -121 7 -194 -42 -266
-191 -285 -19 -3 -36 5 -57 24 -25 23 -31 36 -34 82 -2 30 -7 54 -12 53 -5 0
-48 -13 -96 -28 l-88 -26 0 -67 c1 -103 41 -176 120 -217 16 -8 37 -16 47 -18
10 -1 23 -5 28 -8 29 -14 215 23 215 43 0 5 5 8 11 8 16 0 64 38 129 103 45
46 64 74 84 128 56 150 61 363 11 464 -29 60 -51 83 -86 89 -13 2 -24 5 -24 6
0 1 -36 3 -80 5 -70 2 -113 6 -189 19 -40 6 -56 43 -56 131 0 115 28 173 100
212 51 27 104 29 128 5 11 -11 23 -18 26 -15 5 6 14 -42 18 -98 l3 -36 98 30
97 30 0 71 c-1 39 -7 87 -14 106 -14 38 -63 115 -74 115 -4 1 -16 6 -27 12
-25 14 -90 22 -125 16z"/>
<path d="M10563 6699 l-93 -30 -2 -417 -3 -417 -52 122 c-29 67 -53 128 -53
135 0 8 -16 52 -36 99 -79 187 -71 169 -118 272 -20 42 -36 82 -36 87 0 15
-17 13 -112 -16 l-88 -27 0 -689 c0 -378 3 -688 8 -688 4 0 49 12 99 27 l93
28 0 415 1 415 25 -50 c44 -87 164 -373 164 -389 0 -9 4 -24 10 -34 5 -9 19
-39 30 -67 12 -27 25 -59 30 -70 5 -11 18 -41 30 -67 11 -27 22 -48 23 -48 1
0 43 13 92 29 l90 28 3 691 c1 381 -1 692 -5 691 -5 0 -50 -14 -100 -30z"/>
<path d="M16560 6718 c-14 -6 -99 -44 -190 -84 -91 -40 -205 -88 -255 -107
-230 -88 -582 -267 -595 -302 -4 -11 -4 -28 1 -37 18 -35 47 -31 162 22 61 29
168 76 237 105 358 151 541 232 670 297 24 13 51 36 60 51 14 27 14 29 -9 48
-26 21 -44 23 -81 7z"/>
<path d="M9477 6500 c-69 -22 -117 -43 -117 -52 0 -5 -6 -8 -13 -8 -22 0 -132
-124 -159 -180 -48 -99 -48 -101 -48 -565 0 -384 2 -448 16 -481 18 -43 62
-87 106 -106 15 -7 28 -16 28 -19 0 -4 30 -7 68 -7 66 0 172 24 172 40 0 4 9
8 20 8 11 0 20 5 20 10 0 6 6 10 14 10 8 0 16 4 18 8 2 4 18 18 36 31 17 12
32 29 32 37 0 8 4 14 9 14 15 0 80 113 101 176 19 53 20 85 20 493 0 413 -2
438 -20 480 -32 69 -75 117 -107 119 -113 8 -148 7 -196 -8z m104 -221 c17
-22 19 -50 19 -442 0 -444 0 -447 -48 -495 -42 -42 -119 -63 -168 -47 -47 15
-49 31 -49 469 0 363 2 414 16 441 21 37 74 85 93 85 8 0 17 4 21 9 3 5 26 8
51 7 35 -2 51 -8 65 -27z"/>
<path d="M8690 6447 c-36 -10 -67 -23 -70 -27 -3 -5 -18 -15 -33 -23 -87 -45
-171 -148 -208 -254 -18 -52 -19 -89 -19 -513 0 -378 3 -463 14 -491 16 -36
69 -97 102 -115 21 -12 128 -12 159 1 11 4 46 18 78 30 167 66 287 251 287
445 l0 47 -100 -30 -100 -31 0 -57 c0 -32 -4 -69 -10 -83 -15 -41 -84 -103
-121 -110 -19 -3 -44 -8 -56 -10 -15 -3 -27 3 -40 22 -17 25 -18 57 -18 432 0
431 3 469 49 521 12 14 43 33 68 41 43 15 48 15 77 -3 38 -23 51 -54 51 -118
l0 -49 101 31 102 31 -6 77 c-14 202 -127 289 -307 236z"/>
</g>
</svg>
